<mxfile host="app.diagrams.net" agent="Mozilla/5.0 (Windows NT 10.0; Win64; x64) AppleWebKit/537.36 (KHTML, like Gecko) Chrome/130.0.0.0 Safari/537.36 Edg/130.0.0.0" version="24.8.0">
  <diagram name="페이지-1" id="mHqAourDxLWUBjjNmepP">
    <mxGraphModel grid="1" page="1" gridSize="10" guides="1" tooltips="1" connect="1" arrows="1" fold="1" pageScale="1" pageWidth="827" pageHeight="1169" math="0" shadow="0">
      <root>
        <mxCell id="0" />
        <mxCell id="1" parent="0" />
        <mxCell id="IzsNU7jMBQwgcsb1FpVf-226" style="edgeStyle=orthogonalEdgeStyle;rounded=0;orthogonalLoop=1;jettySize=auto;html=1;exitX=0;exitY=0.5;exitDx=0;exitDy=0;fontFamily=pretendard;fontSource=%3Clink%20rel%3D%22stylesheet%22%20as%3D%22style%22%20crossorigin%20href%3D%22https%3A%2F%2Fcdn.jsdelivr.net%2Fgh%2Forioncactus%2Fpretendard%40v1.3.9%2Fdist%2Fweb%2Fvariable%2Fpretendardvariable.min.css%22%20%2F%3E;fontSize=8;" edge="1" parent="1" source="IzsNU7jMBQwgcsb1FpVf-32">
          <mxGeometry relative="1" as="geometry">
            <mxPoint x="-10" y="1080" as="targetPoint" />
            <mxPoint x="360" y="1120" as="sourcePoint" />
            <Array as="points">
              <mxPoint x="230" y="1085" />
              <mxPoint x="230" y="1110" />
              <mxPoint x="-10" y="1110" />
            </Array>
          </mxGeometry>
        </mxCell>
        <mxCell id="IzsNU7jMBQwgcsb1FpVf-82" style="edgeStyle=orthogonalEdgeStyle;rounded=0;orthogonalLoop=1;jettySize=auto;html=1;entryX=0;entryY=0.5;entryDx=0;entryDy=0;fontFamily=pretendard;fontSource=%3Clink%20rel%3D%22stylesheet%22%20as%3D%22style%22%20crossorigin%20href%3D%22https%3A%2F%2Fcdn.jsdelivr.net%2Fgh%2Forioncactus%2Fpretendard%40v1.3.9%2Fdist%2Fweb%2Fvariable%2Fpretendardvariable.min.css%22%20%2F%3E;fontSize=8;" edge="1" parent="1" source="mdggnLScHl-GK5U8O3dx-2" target="IzsNU7jMBQwgcsb1FpVf-42">
          <mxGeometry relative="1" as="geometry" />
        </mxCell>
        <mxCell id="IzsNU7jMBQwgcsb1FpVf-207" style="edgeStyle=orthogonalEdgeStyle;rounded=0;orthogonalLoop=1;jettySize=auto;html=1;entryX=1;entryY=0.5;entryDx=0;entryDy=0;fontFamily=pretendard;fontSource=%3Clink%20rel%3D%22stylesheet%22%20as%3D%22style%22%20crossorigin%20href%3D%22https%3A%2F%2Fcdn.jsdelivr.net%2Fgh%2Forioncactus%2Fpretendard%40v1.3.9%2Fdist%2Fweb%2Fvariable%2Fpretendardvariable.min.css%22%20%2F%3E;fontSize=8;" edge="1" parent="1" source="mdggnLScHl-GK5U8O3dx-2" target="IzsNU7jMBQwgcsb1FpVf-38">
          <mxGeometry relative="1" as="geometry">
            <Array as="points">
              <mxPoint x="520" y="705" />
            </Array>
          </mxGeometry>
        </mxCell>
        <mxCell id="mdggnLScHl-GK5U8O3dx-2" value="게임 DB" style="shape=cylinder3;whiteSpace=wrap;html=1;boundedLbl=1;backgroundOutline=1;size=7.66668701171875;fontFamily=pretendard;fontSource=%3Clink%20rel%3D%22stylesheet%22%20as%3D%22style%22%20crossorigin%20href%3D%22https%3A%2F%2Fcdn.jsdelivr.net%2Fgh%2Forioncactus%2Fpretendard%40v1.3.9%2Fdist%2Fweb%2Fvariable%2Fpretendardvariable.min.css%22%20%2F%3E;fontSize=8;" vertex="1" parent="1">
          <mxGeometry x="500" y="855" width="80" height="60" as="geometry" />
        </mxCell>
        <mxCell id="IzsNU7jMBQwgcsb1FpVf-43" value="" style="edgeStyle=orthogonalEdgeStyle;rounded=0;orthogonalLoop=1;jettySize=auto;html=1;fontFamily=pretendard;fontSource=%3Clink%20rel%3D%22stylesheet%22%20as%3D%22style%22%20crossorigin%20href%3D%22https%3A%2F%2Fcdn.jsdelivr.net%2Fgh%2Forioncactus%2Fpretendard%40v1.3.9%2Fdist%2Fweb%2Fvariable%2Fpretendardvariable.min.css%22%20%2F%3E;fontSize=8;" edge="1" parent="1" source="mdggnLScHl-GK5U8O3dx-3" target="mdggnLScHl-GK5U8O3dx-4">
          <mxGeometry relative="1" as="geometry" />
        </mxCell>
        <mxCell id="mdggnLScHl-GK5U8O3dx-3" value="게임 시작" style="rounded=1;whiteSpace=wrap;html=1;arcSize=50;fontStyle=1;fontFamily=pretendard;fontSource=%3Clink%20rel%3D%22stylesheet%22%20as%3D%22style%22%20crossorigin%20href%3D%22https%3A%2F%2Fcdn.jsdelivr.net%2Fgh%2Forioncactus%2Fpretendard%40v1.3.9%2Fdist%2Fweb%2Fvariable%2Fpretendardvariable.min.css%22%20%2F%3E;fontSize=8;" vertex="1" parent="1">
          <mxGeometry x="180" y="300" width="120" height="60" as="geometry" />
        </mxCell>
        <mxCell id="IzsNU7jMBQwgcsb1FpVf-44" value="" style="edgeStyle=orthogonalEdgeStyle;rounded=0;orthogonalLoop=1;jettySize=auto;html=1;entryX=0.5;entryY=0;entryDx=0;entryDy=0;fontFamily=pretendard;fontSource=%3Clink%20rel%3D%22stylesheet%22%20as%3D%22style%22%20crossorigin%20href%3D%22https%3A%2F%2Fcdn.jsdelivr.net%2Fgh%2Forioncactus%2Fpretendard%40v1.3.9%2Fdist%2Fweb%2Fvariable%2Fpretendardvariable.min.css%22%20%2F%3E;fontSize=8;" edge="1" parent="1" source="IzsNU7jMBQwgcsb1FpVf-38" target="IzsNU7jMBQwgcsb1FpVf-30">
          <mxGeometry relative="1" as="geometry">
            <Array as="points" />
          </mxGeometry>
        </mxCell>
        <mxCell id="IzsNU7jMBQwgcsb1FpVf-245" value="Yes" style="edgeLabel;html=1;align=center;verticalAlign=middle;resizable=0;points=[];fontFamily=pretendard;fontSource=%3Clink%20rel%3D%22stylesheet%22%20as%3D%22style%22%20crossorigin%20href%3D%22https%3A%2F%2Fcdn.jsdelivr.net%2Fgh%2Forioncactus%2Fpretendard%40v1.3.9%2Fdist%2Fweb%2Fvariable%2Fpretendardvariable.min.css%22%20%2F%3E;fontSize=8;" connectable="0" vertex="1" parent="IzsNU7jMBQwgcsb1FpVf-44">
          <mxGeometry x="-0.9265" relative="1" as="geometry">
            <mxPoint as="offset" />
          </mxGeometry>
        </mxCell>
        <mxCell id="mdggnLScHl-GK5U8O3dx-4" value="시작 화면" style="rounded=0;whiteSpace=wrap;html=1;fontFamily=pretendard;fontSource=%3Clink%20rel%3D%22stylesheet%22%20as%3D%22style%22%20crossorigin%20href%3D%22https%3A%2F%2Fcdn.jsdelivr.net%2Fgh%2Forioncactus%2Fpretendard%40v1.3.9%2Fdist%2Fweb%2Fvariable%2Fpretendardvariable.min.css%22%20%2F%3E;fontSize=8;" vertex="1" parent="1">
          <mxGeometry x="180" y="410" width="120" height="60" as="geometry" />
        </mxCell>
        <mxCell id="IzsNU7jMBQwgcsb1FpVf-218" style="edgeStyle=orthogonalEdgeStyle;rounded=0;orthogonalLoop=1;jettySize=auto;html=1;entryX=0;entryY=0.5;entryDx=0;entryDy=0;fontFamily=pretendard;fontSource=%3Clink%20rel%3D%22stylesheet%22%20as%3D%22style%22%20crossorigin%20href%3D%22https%3A%2F%2Fcdn.jsdelivr.net%2Fgh%2Forioncactus%2Fpretendard%40v1.3.9%2Fdist%2Fweb%2Fvariable%2Fpretendardvariable.min.css%22%20%2F%3E;fontSize=8;" edge="1" parent="1" source="mdggnLScHl-GK5U8O3dx-5" target="mdggnLScHl-GK5U8O3dx-4">
          <mxGeometry relative="1" as="geometry">
            <mxPoint y="480" as="targetPoint" />
            <Array as="points">
              <mxPoint x="-10" y="885" />
              <mxPoint x="-10" y="440" />
            </Array>
          </mxGeometry>
        </mxCell>
        <mxCell id="IzsNU7jMBQwgcsb1FpVf-248" value="" style="edgeStyle=orthogonalEdgeStyle;rounded=0;orthogonalLoop=1;jettySize=auto;html=1;fontFamily=pretendard;fontSource=%3Clink%20rel%3D%22stylesheet%22%20as%3D%22style%22%20crossorigin%20href%3D%22https%3A%2F%2Fcdn.jsdelivr.net%2Fgh%2Forioncactus%2Fpretendard%40v1.3.9%2Fdist%2Fweb%2Fvariable%2Fpretendardvariable.min.css%22%20%2F%3E;fontSize=8;" edge="1" parent="1" source="mdggnLScHl-GK5U8O3dx-5" target="IzsNU7jMBQwgcsb1FpVf-30">
          <mxGeometry relative="1" as="geometry" />
        </mxCell>
        <mxCell id="mdggnLScHl-GK5U8O3dx-5" value="생존자와&amp;nbsp;&lt;br style=&quot;font-size: 8px;&quot;&gt;3m 이내 접근 여부&lt;br style=&quot;font-size: 8px;&quot;&gt;확인&lt;br style=&quot;font-size: 8px;&quot;&gt;(최근접 우선)&lt;br style=&quot;font-size: 8px;&quot;&gt;(비동기)" style="rhombus;whiteSpace=wrap;html=1;fontFamily=pretendard;fontSource=%3Clink%20rel%3D%22stylesheet%22%20as%3D%22style%22%20crossorigin%20href%3D%22https%3A%2F%2Fcdn.jsdelivr.net%2Fgh%2Forioncactus%2Fpretendard%40v1.3.9%2Fdist%2Fweb%2Fvariable%2Fpretendardvariable.min.css%22%20%2F%3E;fontSize=8;" vertex="1" parent="1">
          <mxGeometry x="180" y="845" width="120" height="80" as="geometry" />
        </mxCell>
        <mxCell id="IzsNU7jMBQwgcsb1FpVf-7" value="추격 성공&lt;br style=&quot;font-size: 8px;&quot;&gt;(생존자 탈락 위기) &lt;br style=&quot;font-size: 8px;&quot;&gt;메세지" style="rounded=0;whiteSpace=wrap;html=1;fontFamily=pretendard;fontSource=%3Clink%20rel%3D%22stylesheet%22%20as%3D%22style%22%20crossorigin%20href%3D%22https%3A%2F%2Fcdn.jsdelivr.net%2Fgh%2Forioncactus%2Fpretendard%40v1.3.9%2Fdist%2Fweb%2Fvariable%2Fpretendardvariable.min.css%22%20%2F%3E;fontSize=8;" vertex="1" parent="1">
          <mxGeometry x="40" y="1155" width="120" height="60" as="geometry" />
        </mxCell>
        <mxCell id="IzsNU7jMBQwgcsb1FpVf-56" value="" style="edgeStyle=orthogonalEdgeStyle;rounded=0;orthogonalLoop=1;jettySize=auto;html=1;fontFamily=pretendard;fontSource=%3Clink%20rel%3D%22stylesheet%22%20as%3D%22style%22%20crossorigin%20href%3D%22https%3A%2F%2Fcdn.jsdelivr.net%2Fgh%2Forioncactus%2Fpretendard%40v1.3.9%2Fdist%2Fweb%2Fvariable%2Fpretendardvariable.min.css%22%20%2F%3E;fontSize=8;" edge="1" parent="1" source="IzsNU7jMBQwgcsb1FpVf-9" target="IzsNU7jMBQwgcsb1FpVf-7">
          <mxGeometry relative="1" as="geometry" />
        </mxCell>
        <mxCell id="IzsNU7jMBQwgcsb1FpVf-256" value="Yes" style="edgeLabel;html=1;align=center;verticalAlign=middle;resizable=0;points=[];fontFamily=pretendard;fontSource=%3Clink%20rel%3D%22stylesheet%22%20as%3D%22style%22%20crossorigin%20href%3D%22https%3A%2F%2Fcdn.jsdelivr.net%2Fgh%2Forioncactus%2Fpretendard%40v1.3.9%2Fdist%2Fweb%2Fvariable%2Fpretendardvariable.min.css%22%20%2F%3E;fontSize=8;" connectable="0" vertex="1" parent="IzsNU7jMBQwgcsb1FpVf-56">
          <mxGeometry x="0.3587" y="-1" relative="1" as="geometry">
            <mxPoint as="offset" />
          </mxGeometry>
        </mxCell>
        <mxCell id="IzsNU7jMBQwgcsb1FpVf-224" style="edgeStyle=orthogonalEdgeStyle;rounded=0;orthogonalLoop=1;jettySize=auto;html=1;entryX=0;entryY=0.5;entryDx=0;entryDy=0;fontFamily=pretendard;fontSource=%3Clink%20rel%3D%22stylesheet%22%20as%3D%22style%22%20crossorigin%20href%3D%22https%3A%2F%2Fcdn.jsdelivr.net%2Fgh%2Forioncactus%2Fpretendard%40v1.3.9%2Fdist%2Fweb%2Fvariable%2Fpretendardvariable.min.css%22%20%2F%3E;fontSize=8;" edge="1" parent="1" source="IzsNU7jMBQwgcsb1FpVf-9" target="mdggnLScHl-GK5U8O3dx-4">
          <mxGeometry relative="1" as="geometry">
            <mxPoint x="-20" y="990" as="targetPoint" />
            <Array as="points">
              <mxPoint x="-10" y="1085" />
              <mxPoint x="-10" y="440" />
            </Array>
          </mxGeometry>
        </mxCell>
        <mxCell id="IzsNU7jMBQwgcsb1FpVf-9" value="3초 유지 여부 확인&lt;br style=&quot;font-size: 8px;&quot;&gt;(카운트다운)" style="rhombus;whiteSpace=wrap;html=1;fontFamily=pretendard;fontSource=%3Clink%20rel%3D%22stylesheet%22%20as%3D%22style%22%20crossorigin%20href%3D%22https%3A%2F%2Fcdn.jsdelivr.net%2Fgh%2Forioncactus%2Fpretendard%40v1.3.9%2Fdist%2Fweb%2Fvariable%2Fpretendardvariable.min.css%22%20%2F%3E;fontSize=8;" vertex="1" parent="1">
          <mxGeometry x="40" y="1045" width="120" height="80" as="geometry" />
        </mxCell>
        <mxCell id="IzsNU7jMBQwgcsb1FpVf-126" style="edgeStyle=orthogonalEdgeStyle;rounded=0;orthogonalLoop=1;jettySize=auto;html=1;fontFamily=pretendard;fontSource=%3Clink%20rel%3D%22stylesheet%22%20as%3D%22style%22%20crossorigin%20href%3D%22https%3A%2F%2Fcdn.jsdelivr.net%2Fgh%2Forioncactus%2Fpretendard%40v1.3.9%2Fdist%2Fweb%2Fvariable%2Fpretendardvariable.min.css%22%20%2F%3E;fontSize=8;" edge="1" parent="1" source="IzsNU7jMBQwgcsb1FpVf-167" target="IzsNU7jMBQwgcsb1FpVf-88">
          <mxGeometry relative="1" as="geometry" />
        </mxCell>
        <mxCell id="IzsNU7jMBQwgcsb1FpVf-251" value="Yes" style="edgeLabel;html=1;align=center;verticalAlign=middle;resizable=0;points=[];fontFamily=pretendard;fontSource=%3Clink%20rel%3D%22stylesheet%22%20as%3D%22style%22%20crossorigin%20href%3D%22https%3A%2F%2Fcdn.jsdelivr.net%2Fgh%2Forioncactus%2Fpretendard%40v1.3.9%2Fdist%2Fweb%2Fvariable%2Fpretendardvariable.min.css%22%20%2F%3E;fontSize=8;" connectable="0" vertex="1" parent="IzsNU7jMBQwgcsb1FpVf-126">
          <mxGeometry x="-0.8862" y="3" relative="1" as="geometry">
            <mxPoint as="offset" />
          </mxGeometry>
        </mxCell>
        <mxCell id="IzsNU7jMBQwgcsb1FpVf-252" value="Yes" style="edgeLabel;html=1;align=center;verticalAlign=middle;resizable=0;points=[];fontFamily=pretendard;fontSource=%3Clink%20rel%3D%22stylesheet%22%20as%3D%22style%22%20crossorigin%20href%3D%22https%3A%2F%2Fcdn.jsdelivr.net%2Fgh%2Forioncactus%2Fpretendard%40v1.3.9%2Fdist%2Fweb%2Fvariable%2Fpretendardvariable.min.css%22%20%2F%3E;fontSize=8;" connectable="0" vertex="1" parent="IzsNU7jMBQwgcsb1FpVf-126">
          <mxGeometry x="-0.1647" y="1" relative="1" as="geometry">
            <mxPoint as="offset" />
          </mxGeometry>
        </mxCell>
        <mxCell id="IzsNU7jMBQwgcsb1FpVf-253" value="Yes" style="edgeLabel;html=1;align=center;verticalAlign=middle;resizable=0;points=[];fontFamily=pretendard;fontSource=%3Clink%20rel%3D%22stylesheet%22%20as%3D%22style%22%20crossorigin%20href%3D%22https%3A%2F%2Fcdn.jsdelivr.net%2Fgh%2Forioncactus%2Fpretendard%40v1.3.9%2Fdist%2Fweb%2Fvariable%2Fpretendardvariable.min.css%22%20%2F%3E;fontSize=8;" connectable="0" vertex="1" parent="IzsNU7jMBQwgcsb1FpVf-126">
          <mxGeometry x="0.3752" y="-2" relative="1" as="geometry">
            <mxPoint as="offset" />
          </mxGeometry>
        </mxCell>
        <mxCell id="IzsNU7jMBQwgcsb1FpVf-254" value="Yes" style="edgeLabel;html=1;align=center;verticalAlign=middle;resizable=0;points=[];fontFamily=pretendard;fontSource=%3Clink%20rel%3D%22stylesheet%22%20as%3D%22style%22%20crossorigin%20href%3D%22https%3A%2F%2Fcdn.jsdelivr.net%2Fgh%2Forioncactus%2Fpretendard%40v1.3.9%2Fdist%2Fweb%2Fvariable%2Fpretendardvariable.min.css%22%20%2F%3E;fontSize=8;" connectable="0" vertex="1" parent="IzsNU7jMBQwgcsb1FpVf-126">
          <mxGeometry x="0.9343" y="-1" relative="1" as="geometry">
            <mxPoint as="offset" />
          </mxGeometry>
        </mxCell>
        <mxCell id="IzsNU7jMBQwgcsb1FpVf-204" style="edgeStyle=orthogonalEdgeStyle;rounded=0;orthogonalLoop=1;jettySize=auto;html=1;entryX=0.5;entryY=0;entryDx=0;entryDy=0;fontFamily=pretendard;fontSource=%3Clink%20rel%3D%22stylesheet%22%20as%3D%22style%22%20crossorigin%20href%3D%22https%3A%2F%2Fcdn.jsdelivr.net%2Fgh%2Forioncactus%2Fpretendard%40v1.3.9%2Fdist%2Fweb%2Fvariable%2Fpretendardvariable.min.css%22%20%2F%3E;fontSize=8;" edge="1" parent="1" source="IzsNU7jMBQwgcsb1FpVf-20" target="IzsNU7jMBQwgcsb1FpVf-167">
          <mxGeometry relative="1" as="geometry" />
        </mxCell>
        <mxCell id="IzsNU7jMBQwgcsb1FpVf-20" value="게임 시작&lt;br style=&quot;font-size: 8px;&quot;&gt;(생존자 상태 = &#39;최초&#39;)" style="rounded=1;whiteSpace=wrap;html=1;arcSize=50;fontStyle=1;fontFamily=pretendard;fontSource=%3Clink%20rel%3D%22stylesheet%22%20as%3D%22style%22%20crossorigin%20href%3D%22https%3A%2F%2Fcdn.jsdelivr.net%2Fgh%2Forioncactus%2Fpretendard%40v1.3.9%2Fdist%2Fweb%2Fvariable%2Fpretendardvariable.min.css%22%20%2F%3E;fontSize=8;" vertex="1" parent="1">
          <mxGeometry x="780" y="300" width="120" height="60" as="geometry" />
        </mxCell>
        <mxCell id="IzsNU7jMBQwgcsb1FpVf-21" value="시작 화면" style="rounded=0;whiteSpace=wrap;html=1;fontFamily=pretendard;fontSource=%3Clink%20rel%3D%22stylesheet%22%20as%3D%22style%22%20crossorigin%20href%3D%22https%3A%2F%2Fcdn.jsdelivr.net%2Fgh%2Forioncactus%2Fpretendard%40v1.3.9%2Fdist%2Fweb%2Fvariable%2Fpretendardvariable.min.css%22%20%2F%3E;fontSize=8;" vertex="1" parent="1">
          <mxGeometry x="780" y="410" width="120" height="60" as="geometry" />
        </mxCell>
        <mxCell id="IzsNU7jMBQwgcsb1FpVf-146" style="edgeStyle=orthogonalEdgeStyle;rounded=0;orthogonalLoop=1;jettySize=auto;html=1;entryX=0;entryY=0.5;entryDx=0;entryDy=0;fontFamily=pretendard;fontSource=%3Clink%20rel%3D%22stylesheet%22%20as%3D%22style%22%20crossorigin%20href%3D%22https%3A%2F%2Fcdn.jsdelivr.net%2Fgh%2Forioncactus%2Fpretendard%40v1.3.9%2Fdist%2Fweb%2Fvariable%2Fpretendardvariable.min.css%22%20%2F%3E;fontSize=8;" edge="1" parent="1" source="IzsNU7jMBQwgcsb1FpVf-22" target="IzsNU7jMBQwgcsb1FpVf-84">
          <mxGeometry relative="1" as="geometry" />
        </mxCell>
        <mxCell id="IzsNU7jMBQwgcsb1FpVf-152" style="edgeStyle=orthogonalEdgeStyle;rounded=0;orthogonalLoop=1;jettySize=auto;html=1;fontFamily=pretendard;fontSource=%3Clink%20rel%3D%22stylesheet%22%20as%3D%22style%22%20crossorigin%20href%3D%22https%3A%2F%2Fcdn.jsdelivr.net%2Fgh%2Forioncactus%2Fpretendard%40v1.3.9%2Fdist%2Fweb%2Fvariable%2Fpretendardvariable.min.css%22%20%2F%3E;fontSize=8;" edge="1" parent="1" source="IzsNU7jMBQwgcsb1FpVf-22" target="IzsNU7jMBQwgcsb1FpVf-26">
          <mxGeometry relative="1" as="geometry" />
        </mxCell>
        <mxCell id="IzsNU7jMBQwgcsb1FpVf-268" value="Yes" style="edgeLabel;html=1;align=center;verticalAlign=middle;resizable=0;points=[];fontFamily=pretendard;fontSource=%3Clink%20rel%3D%22stylesheet%22%20as%3D%22style%22%20crossorigin%20href%3D%22https%3A%2F%2Fcdn.jsdelivr.net%2Fgh%2Forioncactus%2Fpretendard%40v1.3.9%2Fdist%2Fweb%2Fvariable%2Fpretendardvariable.min.css%22%20%2F%3E;fontSize=8;" connectable="0" vertex="1" parent="IzsNU7jMBQwgcsb1FpVf-152">
          <mxGeometry x="-0.9019" y="3" relative="1" as="geometry">
            <mxPoint as="offset" />
          </mxGeometry>
        </mxCell>
        <mxCell id="IzsNU7jMBQwgcsb1FpVf-269" value="Yes" style="edgeLabel;html=1;align=center;verticalAlign=middle;resizable=0;points=[];fontFamily=pretendard;fontSource=%3Clink%20rel%3D%22stylesheet%22%20as%3D%22style%22%20crossorigin%20href%3D%22https%3A%2F%2Fcdn.jsdelivr.net%2Fgh%2Forioncactus%2Fpretendard%40v1.3.9%2Fdist%2Fweb%2Fvariable%2Fpretendardvariable.min.css%22%20%2F%3E;fontSize=8;" connectable="0" vertex="1" parent="IzsNU7jMBQwgcsb1FpVf-152">
          <mxGeometry x="0.0373" y="-1" relative="1" as="geometry">
            <mxPoint as="offset" />
          </mxGeometry>
        </mxCell>
        <mxCell id="IzsNU7jMBQwgcsb1FpVf-22" value="미션 구역 3m &lt;br style=&quot;font-size: 8px;&quot;&gt;접근 여부 확인" style="rhombus;whiteSpace=wrap;html=1;fontFamily=pretendard;fontSource=%3Clink%20rel%3D%22stylesheet%22%20as%3D%22style%22%20crossorigin%20href%3D%22https%3A%2F%2Fcdn.jsdelivr.net%2Fgh%2Forioncactus%2Fpretendard%40v1.3.9%2Fdist%2Fweb%2Fvariable%2Fpretendardvariable.min.css%22%20%2F%3E;fontSize=8;" vertex="1" parent="1">
          <mxGeometry x="1080" y="845" width="120" height="80" as="geometry" />
        </mxCell>
        <mxCell id="IzsNU7jMBQwgcsb1FpVf-25" style="edgeStyle=orthogonalEdgeStyle;rounded=0;orthogonalLoop=1;jettySize=auto;html=1;exitX=0.5;exitY=1;exitDx=0;exitDy=0;fontFamily=pretendard;fontSource=%3Clink%20rel%3D%22stylesheet%22%20as%3D%22style%22%20crossorigin%20href%3D%22https%3A%2F%2Fcdn.jsdelivr.net%2Fgh%2Forioncactus%2Fpretendard%40v1.3.9%2Fdist%2Fweb%2Fvariable%2Fpretendardvariable.min.css%22%20%2F%3E;fontSize=8;" edge="1" parent="1">
          <mxGeometry relative="1" as="geometry">
            <mxPoint x="700" y="1175" as="sourcePoint" />
            <mxPoint x="700" y="1175" as="targetPoint" />
          </mxGeometry>
        </mxCell>
        <mxCell id="IzsNU7jMBQwgcsb1FpVf-26" value="미션 성공&lt;br style=&quot;font-size: 8px;&quot;&gt;(= 미션 진척도 +1 / 잔여 미션 개수 n개)" style="rounded=0;whiteSpace=wrap;html=1;fontFamily=pretendard;fontSource=%3Clink%20rel%3D%22stylesheet%22%20as%3D%22style%22%20crossorigin%20href%3D%22https%3A%2F%2Fcdn.jsdelivr.net%2Fgh%2Forioncactus%2Fpretendard%40v1.3.9%2Fdist%2Fweb%2Fvariable%2Fpretendardvariable.min.css%22%20%2F%3E;fontSize=8;" vertex="1" parent="1">
          <mxGeometry x="1080" y="1145" width="120" height="60" as="geometry" />
        </mxCell>
        <mxCell id="IzsNU7jMBQwgcsb1FpVf-27" value="목표 미션 진척도&lt;br style=&quot;font-size: 8px;&quot;&gt;달성 여부 확인&lt;br style=&quot;font-size: 8px;&quot;&gt;(비동기)" style="rhombus;whiteSpace=wrap;html=1;fontFamily=pretendard;fontSource=%3Clink%20rel%3D%22stylesheet%22%20as%3D%22style%22%20crossorigin%20href%3D%22https%3A%2F%2Fcdn.jsdelivr.net%2Fgh%2Forioncactus%2Fpretendard%40v1.3.9%2Fdist%2Fweb%2Fvariable%2Fpretendardvariable.min.css%22%20%2F%3E;fontSize=8;" vertex="1" parent="1">
          <mxGeometry x="180" y="760" width="120" height="60" as="geometry" />
        </mxCell>
        <mxCell id="IzsNU7jMBQwgcsb1FpVf-53" style="edgeStyle=orthogonalEdgeStyle;rounded=0;orthogonalLoop=1;jettySize=auto;html=1;entryX=0.5;entryY=0;entryDx=0;entryDy=0;fontFamily=pretendard;fontSource=%3Clink%20rel%3D%22stylesheet%22%20as%3D%22style%22%20crossorigin%20href%3D%22https%3A%2F%2Fcdn.jsdelivr.net%2Fgh%2Forioncactus%2Fpretendard%40v1.3.9%2Fdist%2Fweb%2Fvariable%2Fpretendardvariable.min.css%22%20%2F%3E;fontSize=8;" edge="1" parent="1" source="IzsNU7jMBQwgcsb1FpVf-30" target="IzsNU7jMBQwgcsb1FpVf-9">
          <mxGeometry relative="1" as="geometry" />
        </mxCell>
        <mxCell id="IzsNU7jMBQwgcsb1FpVf-135" value="=&#39;최초&#39;" style="edgeLabel;html=1;align=center;verticalAlign=middle;resizable=0;points=[];fontFamily=pretendard;fontSource=%3Clink%20rel%3D%22stylesheet%22%20as%3D%22style%22%20crossorigin%20href%3D%22https%3A%2F%2Fcdn.jsdelivr.net%2Fgh%2Forioncactus%2Fpretendard%40v1.3.9%2Fdist%2Fweb%2Fvariable%2Fpretendardvariable.min.css%22%20%2F%3E;fontSize=8;" connectable="0" vertex="1" parent="IzsNU7jMBQwgcsb1FpVf-53">
          <mxGeometry x="-0.5014" y="2" relative="1" as="geometry">
            <mxPoint y="-2" as="offset" />
          </mxGeometry>
        </mxCell>
        <mxCell id="IzsNU7jMBQwgcsb1FpVf-54" style="edgeStyle=orthogonalEdgeStyle;rounded=0;orthogonalLoop=1;jettySize=auto;html=1;entryX=0.5;entryY=0;entryDx=0;entryDy=0;fontFamily=pretendard;fontSource=%3Clink%20rel%3D%22stylesheet%22%20as%3D%22style%22%20crossorigin%20href%3D%22https%3A%2F%2Fcdn.jsdelivr.net%2Fgh%2Forioncactus%2Fpretendard%40v1.3.9%2Fdist%2Fweb%2Fvariable%2Fpretendardvariable.min.css%22%20%2F%3E;fontSize=8;" edge="1" parent="1" source="IzsNU7jMBQwgcsb1FpVf-30" target="IzsNU7jMBQwgcsb1FpVf-32">
          <mxGeometry relative="1" as="geometry" />
        </mxCell>
        <mxCell id="IzsNU7jMBQwgcsb1FpVf-137" value="=&#39;부활&#39;" style="edgeLabel;html=1;align=center;verticalAlign=middle;resizable=0;points=[];fontFamily=pretendard;fontSource=%3Clink%20rel%3D%22stylesheet%22%20as%3D%22style%22%20crossorigin%20href%3D%22https%3A%2F%2Fcdn.jsdelivr.net%2Fgh%2Forioncactus%2Fpretendard%40v1.3.9%2Fdist%2Fweb%2Fvariable%2Fpretendardvariable.min.css%22%20%2F%3E;fontSize=8;" connectable="0" vertex="1" parent="IzsNU7jMBQwgcsb1FpVf-54">
          <mxGeometry x="-0.5215" y="3" relative="1" as="geometry">
            <mxPoint x="1" y="3" as="offset" />
          </mxGeometry>
        </mxCell>
        <mxCell id="IzsNU7jMBQwgcsb1FpVf-30" value="생존자 상태 체크" style="rhombus;whiteSpace=wrap;html=1;fontFamily=pretendard;fontSource=%3Clink%20rel%3D%22stylesheet%22%20as%3D%22style%22%20crossorigin%20href%3D%22https%3A%2F%2Fcdn.jsdelivr.net%2Fgh%2Forioncactus%2Fpretendard%40v1.3.9%2Fdist%2Fweb%2Fvariable%2Fpretendardvariable.min.css%22%20%2F%3E;fontSize=8;" vertex="1" parent="1">
          <mxGeometry x="180" y="945" width="120" height="80" as="geometry" />
        </mxCell>
        <mxCell id="IzsNU7jMBQwgcsb1FpVf-31" value="추격 성공&lt;br style=&quot;font-size: 8px;&quot;&gt;(생존자 영구 탈락)&lt;br style=&quot;font-size: 8px;&quot;&gt;메세지" style="rounded=0;whiteSpace=wrap;html=1;fontFamily=pretendard;fontSource=%3Clink%20rel%3D%22stylesheet%22%20as%3D%22style%22%20crossorigin%20href%3D%22https%3A%2F%2Fcdn.jsdelivr.net%2Fgh%2Forioncactus%2Fpretendard%40v1.3.9%2Fdist%2Fweb%2Fvariable%2Fpretendardvariable.min.css%22%20%2F%3E;fontSize=8;" vertex="1" parent="1">
          <mxGeometry x="320" y="1155" width="120" height="60" as="geometry" />
        </mxCell>
        <mxCell id="IzsNU7jMBQwgcsb1FpVf-60" style="edgeStyle=orthogonalEdgeStyle;rounded=0;orthogonalLoop=1;jettySize=auto;html=1;entryX=0.5;entryY=0;entryDx=0;entryDy=0;fontFamily=pretendard;fontSource=%3Clink%20rel%3D%22stylesheet%22%20as%3D%22style%22%20crossorigin%20href%3D%22https%3A%2F%2Fcdn.jsdelivr.net%2Fgh%2Forioncactus%2Fpretendard%40v1.3.9%2Fdist%2Fweb%2Fvariable%2Fpretendardvariable.min.css%22%20%2F%3E;fontSize=8;" edge="1" parent="1" source="IzsNU7jMBQwgcsb1FpVf-32" target="IzsNU7jMBQwgcsb1FpVf-31">
          <mxGeometry relative="1" as="geometry" />
        </mxCell>
        <mxCell id="IzsNU7jMBQwgcsb1FpVf-257" value="Yes" style="edgeLabel;html=1;align=center;verticalAlign=middle;resizable=0;points=[];fontFamily=pretendard;fontSource=%3Clink%20rel%3D%22stylesheet%22%20as%3D%22style%22%20crossorigin%20href%3D%22https%3A%2F%2Fcdn.jsdelivr.net%2Fgh%2Forioncactus%2Fpretendard%40v1.3.9%2Fdist%2Fweb%2Fvariable%2Fpretendardvariable.min.css%22%20%2F%3E;fontSize=8;" connectable="0" vertex="1" parent="IzsNU7jMBQwgcsb1FpVf-60">
          <mxGeometry x="0.3587" y="1" relative="1" as="geometry">
            <mxPoint as="offset" />
          </mxGeometry>
        </mxCell>
        <mxCell id="IzsNU7jMBQwgcsb1FpVf-32" value="3초 유지 여부 확인&lt;br style=&quot;font-size: 8px;&quot;&gt;(카운트다운)" style="rhombus;whiteSpace=wrap;html=1;fontFamily=pretendard;fontSource=%3Clink%20rel%3D%22stylesheet%22%20as%3D%22style%22%20crossorigin%20href%3D%22https%3A%2F%2Fcdn.jsdelivr.net%2Fgh%2Forioncactus%2Fpretendard%40v1.3.9%2Fdist%2Fweb%2Fvariable%2Fpretendardvariable.min.css%22%20%2F%3E;fontSize=8;" vertex="1" parent="1">
          <mxGeometry x="320" y="1045" width="120" height="80" as="geometry" />
        </mxCell>
        <mxCell id="IzsNU7jMBQwgcsb1FpVf-33" value="&lt;font style=&quot;font-size: 21px;&quot;&gt;술래&lt;/font&gt;" style="text;html=1;align=center;verticalAlign=middle;whiteSpace=wrap;rounded=0;fontStyle=1;fontFamily=pretendard;fontSource=%3Clink%20rel%3D%22stylesheet%22%20as%3D%22style%22%20crossorigin%20href%3D%22https%3A%2F%2Fcdn.jsdelivr.net%2Fgh%2Forioncactus%2Fpretendard%40v1.3.9%2Fdist%2Fweb%2Fvariable%2Fpretendardvariable.min.css%22%20%2F%3E;fontSize=21;" vertex="1" parent="1">
          <mxGeometry x="210" y="260" width="60" height="30" as="geometry" />
        </mxCell>
        <mxCell id="IzsNU7jMBQwgcsb1FpVf-35" value="&lt;font style=&quot;font-size: 21px;&quot;&gt;생존자&lt;/font&gt;" style="text;html=1;align=center;verticalAlign=middle;whiteSpace=wrap;rounded=0;fontStyle=1;fontFamily=pretendard;fontSource=%3Clink%20rel%3D%22stylesheet%22%20as%3D%22style%22%20crossorigin%20href%3D%22https%3A%2F%2Fcdn.jsdelivr.net%2Fgh%2Forioncactus%2Fpretendard%40v1.3.9%2Fdist%2Fweb%2Fvariable%2Fpretendardvariable.min.css%22%20%2F%3E;fontSize=21;" vertex="1" parent="1">
          <mxGeometry x="795" y="260" width="90" height="30" as="geometry" />
        </mxCell>
        <mxCell id="IzsNU7jMBQwgcsb1FpVf-39" value="술래 승리 화면" style="rounded=0;whiteSpace=wrap;html=1;fontFamily=pretendard;fontSource=%3Clink%20rel%3D%22stylesheet%22%20as%3D%22style%22%20crossorigin%20href%3D%22https%3A%2F%2Fcdn.jsdelivr.net%2Fgh%2Forioncactus%2Fpretendard%40v1.3.9%2Fdist%2Fweb%2Fvariable%2Fpretendardvariable.min.css%22%20%2F%3E;fontSize=8;" vertex="1" parent="1">
          <mxGeometry x="340" y="300" width="120" height="60" as="geometry" />
        </mxCell>
        <mxCell id="IzsNU7jMBQwgcsb1FpVf-40" value="생존자 승리 화면" style="rounded=0;whiteSpace=wrap;html=1;fontFamily=pretendard;fontSource=%3Clink%20rel%3D%22stylesheet%22%20as%3D%22style%22%20crossorigin%20href%3D%22https%3A%2F%2Fcdn.jsdelivr.net%2Fgh%2Forioncactus%2Fpretendard%40v1.3.9%2Fdist%2Fweb%2Fvariable%2Fpretendardvariable.min.css%22%20%2F%3E;fontSize=8;" vertex="1" parent="1">
          <mxGeometry x="950" y="300" width="120" height="60" as="geometry" />
        </mxCell>
        <mxCell id="IzsNU7jMBQwgcsb1FpVf-145" style="edgeStyle=orthogonalEdgeStyle;rounded=0;orthogonalLoop=1;jettySize=auto;html=1;entryX=0;entryY=0.5;entryDx=0;entryDy=0;fontFamily=pretendard;fontSource=%3Clink%20rel%3D%22stylesheet%22%20as%3D%22style%22%20crossorigin%20href%3D%22https%3A%2F%2Fcdn.jsdelivr.net%2Fgh%2Forioncactus%2Fpretendard%40v1.3.9%2Fdist%2Fweb%2Fvariable%2Fpretendardvariable.min.css%22%20%2F%3E;fontSize=8;" edge="1" parent="1" source="IzsNU7jMBQwgcsb1FpVf-42" target="IzsNU7jMBQwgcsb1FpVf-22">
          <mxGeometry relative="1" as="geometry" />
        </mxCell>
        <mxCell id="mSkNUsoHIlx_nRJ54L45-2" value="&lt;font style=&quot;font-size: 6px;&quot; face=&quot;pretendard&quot;&gt;=&#39;최초&#39; or &#39;부활&#39;&lt;/font&gt;" style="edgeLabel;html=1;align=center;verticalAlign=middle;resizable=0;points=[];" connectable="0" vertex="1" parent="IzsNU7jMBQwgcsb1FpVf-145">
          <mxGeometry x="0.7655" y="-1" relative="1" as="geometry">
            <mxPoint x="-9" y="-1" as="offset" />
          </mxGeometry>
        </mxCell>
        <mxCell id="IzsNU7jMBQwgcsb1FpVf-42" value="술래와 3m 이내 &lt;br style=&quot;font-size: 8px;&quot;&gt;접근 여부 확인&lt;br style=&quot;font-size: 8px;&quot;&gt;(비동기)" style="rhombus;whiteSpace=wrap;html=1;fontFamily=pretendard;fontSource=%3Clink%20rel%3D%22stylesheet%22%20as%3D%22style%22%20crossorigin%20href%3D%22https%3A%2F%2Fcdn.jsdelivr.net%2Fgh%2Forioncactus%2Fpretendard%40v1.3.9%2Fdist%2Fweb%2Fvariable%2Fpretendardvariable.min.css%22%20%2F%3E;fontSize=8;" vertex="1" parent="1">
          <mxGeometry x="780" y="845" width="120" height="80" as="geometry" />
        </mxCell>
        <mxCell id="IzsNU7jMBQwgcsb1FpVf-45" style="edgeStyle=orthogonalEdgeStyle;rounded=0;orthogonalLoop=1;jettySize=auto;html=1;entryX=0;entryY=0.5;entryDx=0;entryDy=0;entryPerimeter=0;fontFamily=pretendard;fontSource=%3Clink%20rel%3D%22stylesheet%22%20as%3D%22style%22%20crossorigin%20href%3D%22https%3A%2F%2Fcdn.jsdelivr.net%2Fgh%2Forioncactus%2Fpretendard%40v1.3.9%2Fdist%2Fweb%2Fvariable%2Fpretendardvariable.min.css%22%20%2F%3E;fontSize=8;exitX=1.034;exitY=0.511;exitDx=0;exitDy=0;exitPerimeter=0;" edge="1" parent="1" source="IzsNU7jMBQwgcsb1FpVf-276" target="mdggnLScHl-GK5U8O3dx-2">
          <mxGeometry relative="1" as="geometry">
            <mxPoint x="250" y="930" as="sourcePoint" />
            <Array as="points">
              <mxPoint x="410" y="930" />
              <mxPoint x="410" y="885" />
            </Array>
          </mxGeometry>
        </mxCell>
        <mxCell id="IzsNU7jMBQwgcsb1FpVf-67" value="" style="edgeStyle=orthogonalEdgeStyle;rounded=0;orthogonalLoop=1;jettySize=auto;html=1;fontFamily=pretendard;fontSource=%3Clink%20rel%3D%22stylesheet%22%20as%3D%22style%22%20crossorigin%20href%3D%22https%3A%2F%2Fcdn.jsdelivr.net%2Fgh%2Forioncactus%2Fpretendard%40v1.3.9%2Fdist%2Fweb%2Fvariable%2Fpretendardvariable.min.css%22%20%2F%3E;fontSize=8;" edge="1" parent="1" source="mdggnLScHl-GK5U8O3dx-4" target="IzsNU7jMBQwgcsb1FpVf-38">
          <mxGeometry relative="1" as="geometry">
            <mxPoint x="240" y="470" as="sourcePoint" />
            <mxPoint x="240" y="680" as="targetPoint" />
          </mxGeometry>
        </mxCell>
        <mxCell id="IzsNU7jMBQwgcsb1FpVf-244" value="Yes" style="edgeLabel;html=1;align=center;verticalAlign=middle;resizable=0;points=[];fontFamily=pretendard;fontSource=%3Clink%20rel%3D%22stylesheet%22%20as%3D%22style%22%20crossorigin%20href%3D%22https%3A%2F%2Fcdn.jsdelivr.net%2Fgh%2Forioncactus%2Fpretendard%40v1.3.9%2Fdist%2Fweb%2Fvariable%2Fpretendardvariable.min.css%22%20%2F%3E;fontSize=8;" connectable="0" vertex="1" parent="IzsNU7jMBQwgcsb1FpVf-67">
          <mxGeometry x="0.6246" y="2" relative="1" as="geometry">
            <mxPoint as="offset" />
          </mxGeometry>
        </mxCell>
        <mxCell id="IzsNU7jMBQwgcsb1FpVf-212" style="edgeStyle=orthogonalEdgeStyle;rounded=0;orthogonalLoop=1;jettySize=auto;html=1;exitX=0.674;exitY=0.184;exitDx=0;exitDy=0;entryX=0.5;entryY=1;entryDx=0;entryDy=0;exitPerimeter=0;fontFamily=pretendard;fontSource=%3Clink%20rel%3D%22stylesheet%22%20as%3D%22style%22%20crossorigin%20href%3D%22https%3A%2F%2Fcdn.jsdelivr.net%2Fgh%2Forioncactus%2Fpretendard%40v1.3.9%2Fdist%2Fweb%2Fvariable%2Fpretendardvariable.min.css%22%20%2F%3E;fontSize=8;" edge="1" parent="1" source="IzsNU7jMBQwgcsb1FpVf-38" target="IzsNU7jMBQwgcsb1FpVf-39">
          <mxGeometry relative="1" as="geometry">
            <Array as="points">
              <mxPoint x="400" y="680" />
            </Array>
          </mxGeometry>
        </mxCell>
        <mxCell id="IzsNU7jMBQwgcsb1FpVf-38" value="생존자 전원&lt;div style=&quot;font-size: 8px;&quot;&gt;영구 탈락 여부 확인&lt;br style=&quot;font-size: 8px;&quot;&gt;(비동기)&lt;/div&gt;" style="rhombus;whiteSpace=wrap;html=1;fontFamily=pretendard;fontSource=%3Clink%20rel%3D%22stylesheet%22%20as%3D%22style%22%20crossorigin%20href%3D%22https%3A%2F%2Fcdn.jsdelivr.net%2Fgh%2Forioncactus%2Fpretendard%40v1.3.9%2Fdist%2Fweb%2Fvariable%2Fpretendardvariable.min.css%22%20%2F%3E;fontSize=8;" vertex="1" parent="1">
          <mxGeometry x="180" y="665" width="120" height="80" as="geometry" />
        </mxCell>
        <mxCell id="IzsNU7jMBQwgcsb1FpVf-69" value="게임 DB" style="shape=cylinder3;whiteSpace=wrap;html=1;boundedLbl=1;backgroundOutline=1;size=7.66668701171875;fontFamily=pretendard;fontSource=%3Clink%20rel%3D%22stylesheet%22%20as%3D%22style%22%20crossorigin%20href%3D%22https%3A%2F%2Fcdn.jsdelivr.net%2Fgh%2Forioncactus%2Fpretendard%40v1.3.9%2Fdist%2Fweb%2Fvariable%2Fpretendardvariable.min.css%22%20%2F%3E;fontSize=8;" vertex="1" parent="1">
          <mxGeometry x="500" y="1155" width="80" height="60" as="geometry" />
        </mxCell>
        <mxCell id="IzsNU7jMBQwgcsb1FpVf-72" style="edgeStyle=orthogonalEdgeStyle;rounded=0;orthogonalLoop=1;jettySize=auto;html=1;entryX=0.5;entryY=1;entryDx=0;entryDy=0;entryPerimeter=0;fontFamily=pretendard;fontSource=%3Clink%20rel%3D%22stylesheet%22%20as%3D%22style%22%20crossorigin%20href%3D%22https%3A%2F%2Fcdn.jsdelivr.net%2Fgh%2Forioncactus%2Fpretendard%40v1.3.9%2Fdist%2Fweb%2Fvariable%2Fpretendardvariable.min.css%22%20%2F%3E;fontSize=8;" edge="1" parent="1" source="IzsNU7jMBQwgcsb1FpVf-7" target="IzsNU7jMBQwgcsb1FpVf-69">
          <mxGeometry relative="1" as="geometry">
            <Array as="points">
              <mxPoint x="100" y="1235" />
              <mxPoint x="540" y="1235" />
            </Array>
          </mxGeometry>
        </mxCell>
        <mxCell id="IzsNU7jMBQwgcsb1FpVf-277" value="해당 생존자 상태 &lt;br style=&quot;font-size: 8px;&quot;&gt;= &#39;탈락 위기&#39;로 저장" style="edgeLabel;html=1;align=center;verticalAlign=middle;resizable=0;points=[];fontFamily=pretendard;fontSource=%3Clink%20rel%3D%22stylesheet%22%20as%3D%22style%22%20crossorigin%20href%3D%22https%3A%2F%2Fcdn.jsdelivr.net%2Fgh%2Forioncactus%2Fpretendard%40v1.3.9%2Fdist%2Fweb%2Fvariable%2Fpretendardvariable.min.css%22%20%2F%3E;fontSize=8;" connectable="0" vertex="1" parent="IzsNU7jMBQwgcsb1FpVf-72">
          <mxGeometry x="-0.6465" y="-1" relative="1" as="geometry">
            <mxPoint x="35" as="offset" />
          </mxGeometry>
        </mxCell>
        <mxCell id="IzsNU7jMBQwgcsb1FpVf-77" style="edgeStyle=orthogonalEdgeStyle;rounded=0;orthogonalLoop=1;jettySize=auto;html=1;entryX=1;entryY=0;entryDx=0;entryDy=0;fontFamily=pretendard;fontSource=%3Clink%20rel%3D%22stylesheet%22%20as%3D%22style%22%20crossorigin%20href%3D%22https%3A%2F%2Fcdn.jsdelivr.net%2Fgh%2Forioncactus%2Fpretendard%40v1.3.9%2Fdist%2Fweb%2Fvariable%2Fpretendardvariable.min.css%22%20%2F%3E;fontSize=8;" edge="1" parent="1" source="IzsNU7jMBQwgcsb1FpVf-73" target="IzsNU7jMBQwgcsb1FpVf-30">
          <mxGeometry relative="1" as="geometry" />
        </mxCell>
        <mxCell id="IzsNU7jMBQwgcsb1FpVf-127" style="edgeStyle=orthogonalEdgeStyle;rounded=0;orthogonalLoop=1;jettySize=auto;html=1;entryX=0;entryY=0.5;entryDx=0;entryDy=0;fontFamily=pretendard;fontSource=%3Clink%20rel%3D%22stylesheet%22%20as%3D%22style%22%20crossorigin%20href%3D%22https%3A%2F%2Fcdn.jsdelivr.net%2Fgh%2Forioncactus%2Fpretendard%40v1.3.9%2Fdist%2Fweb%2Fvariable%2Fpretendardvariable.min.css%22%20%2F%3E;fontSize=8;" edge="1" parent="1" source="IzsNU7jMBQwgcsb1FpVf-73" target="IzsNU7jMBQwgcsb1FpVf-115">
          <mxGeometry relative="1" as="geometry" />
        </mxCell>
        <mxCell id="IzsNU7jMBQwgcsb1FpVf-140" style="edgeStyle=orthogonalEdgeStyle;rounded=0;orthogonalLoop=1;jettySize=auto;html=1;entryX=0;entryY=0;entryDx=0;entryDy=0;fontFamily=pretendard;fontSource=%3Clink%20rel%3D%22stylesheet%22%20as%3D%22style%22%20crossorigin%20href%3D%22https%3A%2F%2Fcdn.jsdelivr.net%2Fgh%2Forioncactus%2Fpretendard%40v1.3.9%2Fdist%2Fweb%2Fvariable%2Fpretendardvariable.min.css%22%20%2F%3E;fontSize=8;" edge="1" parent="1" source="IzsNU7jMBQwgcsb1FpVf-73" target="IzsNU7jMBQwgcsb1FpVf-88">
          <mxGeometry relative="1" as="geometry" />
        </mxCell>
        <mxCell id="IzsNU7jMBQwgcsb1FpVf-73" value="게임 DB" style="shape=cylinder3;whiteSpace=wrap;html=1;boundedLbl=1;backgroundOutline=1;size=7.66668701171875;fontFamily=pretendard;fontSource=%3Clink%20rel%3D%22stylesheet%22%20as%3D%22style%22%20crossorigin%20href%3D%22https%3A%2F%2Fcdn.jsdelivr.net%2Fgh%2Forioncactus%2Fpretendard%40v1.3.9%2Fdist%2Fweb%2Fvariable%2Fpretendardvariable.min.css%22%20%2F%3E;fontSize=8;" vertex="1" parent="1">
          <mxGeometry x="500" y="935" width="80" height="60" as="geometry" />
        </mxCell>
        <mxCell id="IzsNU7jMBQwgcsb1FpVf-78" value="목표 미션 진척도&lt;br style=&quot;font-size: 8px;&quot;&gt;달성 여부 확인&lt;br style=&quot;font-size: 8px;&quot;&gt;(비동기)" style="rhombus;whiteSpace=wrap;html=1;fontFamily=pretendard;fontSource=%3Clink%20rel%3D%22stylesheet%22%20as%3D%22style%22%20crossorigin%20href%3D%22https%3A%2F%2Fcdn.jsdelivr.net%2Fgh%2Forioncactus%2Fpretendard%40v1.3.9%2Fdist%2Fweb%2Fvariable%2Fpretendardvariable.min.css%22%20%2F%3E;fontSize=8;" vertex="1" parent="1">
          <mxGeometry x="780" y="750" width="120" height="80" as="geometry" />
        </mxCell>
        <mxCell id="IzsNU7jMBQwgcsb1FpVf-213" style="edgeStyle=orthogonalEdgeStyle;rounded=0;orthogonalLoop=1;jettySize=auto;html=1;exitX=0;exitY=0;exitDx=0;exitDy=0;entryX=0.5;entryY=1;entryDx=0;entryDy=0;fontFamily=pretendard;fontSource=%3Clink%20rel%3D%22stylesheet%22%20as%3D%22style%22%20crossorigin%20href%3D%22https%3A%2F%2Fcdn.jsdelivr.net%2Fgh%2Forioncactus%2Fpretendard%40v1.3.9%2Fdist%2Fweb%2Fvariable%2Fpretendardvariable.min.css%22%20%2F%3E;fontSize=8;" edge="1" parent="1" source="IzsNU7jMBQwgcsb1FpVf-79" target="IzsNU7jMBQwgcsb1FpVf-39">
          <mxGeometry relative="1" as="geometry">
            <mxPoint x="500" y="390" as="targetPoint" />
            <Array as="points">
              <mxPoint x="400" y="680" />
            </Array>
          </mxGeometry>
        </mxCell>
        <mxCell id="IzsNU7jMBQwgcsb1FpVf-79" value="생존자 전원&lt;div style=&quot;font-size: 8px;&quot;&gt;영구 탈락 여부 확인&lt;br style=&quot;font-size: 8px;&quot;&gt;(비동기)&lt;br style=&quot;font-size: 8px;&quot;&gt;&lt;/div&gt;" style="rhombus;whiteSpace=wrap;html=1;fontFamily=pretendard;fontSource=%3Clink%20rel%3D%22stylesheet%22%20as%3D%22style%22%20crossorigin%20href%3D%22https%3A%2F%2Fcdn.jsdelivr.net%2Fgh%2Forioncactus%2Fpretendard%40v1.3.9%2Fdist%2Fweb%2Fvariable%2Fpretendardvariable.min.css%22%20%2F%3E;fontSize=8;" vertex="1" parent="1">
          <mxGeometry x="780" y="660" width="120" height="80" as="geometry" />
        </mxCell>
        <mxCell id="IzsNU7jMBQwgcsb1FpVf-155" style="edgeStyle=orthogonalEdgeStyle;rounded=0;orthogonalLoop=1;jettySize=auto;html=1;fontFamily=pretendard;fontSource=%3Clink%20rel%3D%22stylesheet%22%20as%3D%22style%22%20crossorigin%20href%3D%22https%3A%2F%2Fcdn.jsdelivr.net%2Fgh%2Forioncactus%2Fpretendard%40v1.3.9%2Fdist%2Fweb%2Fvariable%2Fpretendardvariable.min.css%22%20%2F%3E;fontSize=8;" edge="1" parent="1" source="IzsNU7jMBQwgcsb1FpVf-84" target="IzsNU7jMBQwgcsb1FpVf-85">
          <mxGeometry relative="1" as="geometry" />
        </mxCell>
        <mxCell id="IzsNU7jMBQwgcsb1FpVf-266" value="Yes" style="edgeLabel;html=1;align=center;verticalAlign=middle;resizable=0;points=[];fontFamily=pretendard;fontSource=%3Clink%20rel%3D%22stylesheet%22%20as%3D%22style%22%20crossorigin%20href%3D%22https%3A%2F%2Fcdn.jsdelivr.net%2Fgh%2Forioncactus%2Fpretendard%40v1.3.9%2Fdist%2Fweb%2Fvariable%2Fpretendardvariable.min.css%22%20%2F%3E;fontSize=8;" connectable="0" vertex="1" parent="IzsNU7jMBQwgcsb1FpVf-155">
          <mxGeometry x="0.7479" relative="1" as="geometry">
            <mxPoint as="offset" />
          </mxGeometry>
        </mxCell>
        <mxCell id="IzsNU7jMBQwgcsb1FpVf-267" value="Yes" style="edgeLabel;html=1;align=center;verticalAlign=middle;resizable=0;points=[];fontFamily=pretendard;fontSource=%3Clink%20rel%3D%22stylesheet%22%20as%3D%22style%22%20crossorigin%20href%3D%22https%3A%2F%2Fcdn.jsdelivr.net%2Fgh%2Forioncactus%2Fpretendard%40v1.3.9%2Fdist%2Fweb%2Fvariable%2Fpretendardvariable.min.css%22%20%2F%3E;fontSize=8;" connectable="0" vertex="1" parent="IzsNU7jMBQwgcsb1FpVf-155">
          <mxGeometry x="-0.8367" y="-3" relative="1" as="geometry">
            <mxPoint as="offset" />
          </mxGeometry>
        </mxCell>
        <mxCell id="IzsNU7jMBQwgcsb1FpVf-238" style="edgeStyle=orthogonalEdgeStyle;rounded=0;orthogonalLoop=1;jettySize=auto;html=1;fontFamily=pretendard;fontSource=%3Clink%20rel%3D%22stylesheet%22%20as%3D%22style%22%20crossorigin%20href%3D%22https%3A%2F%2Fcdn.jsdelivr.net%2Fgh%2Forioncactus%2Fpretendard%40v1.3.9%2Fdist%2Fweb%2Fvariable%2Fpretendardvariable.min.css%22%20%2F%3E;fontSize=8;" edge="1" parent="1" source="IzsNU7jMBQwgcsb1FpVf-84">
          <mxGeometry relative="1" as="geometry">
            <mxPoint x="920" y="760" as="targetPoint" />
            <Array as="points">
              <mxPoint x="1360" y="760" />
            </Array>
          </mxGeometry>
        </mxCell>
        <mxCell id="IzsNU7jMBQwgcsb1FpVf-84" value="감옥에 3m 이내&amp;nbsp;&lt;br style=&quot;font-size: 8px;&quot;&gt;접근 여부 확인" style="rhombus;whiteSpace=wrap;html=1;fontFamily=pretendard;fontSource=%3Clink%20rel%3D%22stylesheet%22%20as%3D%22style%22%20crossorigin%20href%3D%22https%3A%2F%2Fcdn.jsdelivr.net%2Fgh%2Forioncactus%2Fpretendard%40v1.3.9%2Fdist%2Fweb%2Fvariable%2Fpretendardvariable.min.css%22%20%2F%3E;fontSize=8;" vertex="1" parent="1">
          <mxGeometry x="1300" y="845" width="120" height="80" as="geometry" />
        </mxCell>
        <mxCell id="IzsNU7jMBQwgcsb1FpVf-85" value="구출 성공&lt;br style=&quot;font-size: 8px;&quot;&gt;(= &#39;구출 가능&#39; 상태의 생존자 모두 &#39;부활&#39;로 변경)" style="rounded=0;whiteSpace=wrap;html=1;fontFamily=pretendard;fontSource=%3Clink%20rel%3D%22stylesheet%22%20as%3D%22style%22%20crossorigin%20href%3D%22https%3A%2F%2Fcdn.jsdelivr.net%2Fgh%2Forioncactus%2Fpretendard%40v1.3.9%2Fdist%2Fweb%2Fvariable%2Fpretendardvariable.min.css%22%20%2F%3E;fontSize=8;" vertex="1" parent="1">
          <mxGeometry x="1300" y="1055" width="120" height="60" as="geometry" />
        </mxCell>
        <mxCell id="IzsNU7jMBQwgcsb1FpVf-88" value="현재 상태 체크" style="rhombus;whiteSpace=wrap;html=1;fontFamily=pretendard;fontSource=%3Clink%20rel%3D%22stylesheet%22%20as%3D%22style%22%20crossorigin%20href%3D%22https%3A%2F%2Fcdn.jsdelivr.net%2Fgh%2Forioncactus%2Fpretendard%40v1.3.9%2Fdist%2Fweb%2Fvariable%2Fpretendardvariable.min.css%22%20%2F%3E;fontSize=8;" vertex="1" parent="1">
          <mxGeometry x="780" y="945" width="120" height="80" as="geometry" />
        </mxCell>
        <mxCell id="IzsNU7jMBQwgcsb1FpVf-164" style="edgeStyle=orthogonalEdgeStyle;rounded=0;orthogonalLoop=1;jettySize=auto;html=1;entryX=0.5;entryY=0;entryDx=0;entryDy=0;fontFamily=pretendard;fontSource=%3Clink%20rel%3D%22stylesheet%22%20as%3D%22style%22%20crossorigin%20href%3D%22https%3A%2F%2Fcdn.jsdelivr.net%2Fgh%2Forioncactus%2Fpretendard%40v1.3.9%2Fdist%2Fweb%2Fvariable%2Fpretendardvariable.min.css%22%20%2F%3E;fontSize=8;" edge="1" parent="1" source="IzsNU7jMBQwgcsb1FpVf-113" target="IzsNU7jMBQwgcsb1FpVf-158">
          <mxGeometry relative="1" as="geometry" />
        </mxCell>
        <mxCell id="IzsNU7jMBQwgcsb1FpVf-113" value="회피 실패&lt;br style=&quot;font-size: 8px;&quot;&gt;(생존자 탈락 위기) &lt;br style=&quot;font-size: 8px;&quot;&gt;메세지" style="rounded=0;whiteSpace=wrap;html=1;fontFamily=pretendard;fontSource=%3Clink%20rel%3D%22stylesheet%22%20as%3D%22style%22%20crossorigin%20href%3D%22https%3A%2F%2Fcdn.jsdelivr.net%2Fgh%2Forioncactus%2Fpretendard%40v1.3.9%2Fdist%2Fweb%2Fvariable%2Fpretendardvariable.min.css%22%20%2F%3E;fontSize=8;" vertex="1" parent="1">
          <mxGeometry x="635" y="1155" width="118" height="60" as="geometry" />
        </mxCell>
        <mxCell id="IzsNU7jMBQwgcsb1FpVf-114" value="" style="edgeStyle=orthogonalEdgeStyle;rounded=0;orthogonalLoop=1;jettySize=auto;html=1;fontFamily=pretendard;fontSource=%3Clink%20rel%3D%22stylesheet%22%20as%3D%22style%22%20crossorigin%20href%3D%22https%3A%2F%2Fcdn.jsdelivr.net%2Fgh%2Forioncactus%2Fpretendard%40v1.3.9%2Fdist%2Fweb%2Fvariable%2Fpretendardvariable.min.css%22%20%2F%3E;fontSize=8;" edge="1" parent="1" source="IzsNU7jMBQwgcsb1FpVf-115" target="IzsNU7jMBQwgcsb1FpVf-113">
          <mxGeometry relative="1" as="geometry" />
        </mxCell>
        <mxCell id="IzsNU7jMBQwgcsb1FpVf-258" value="Yes" style="edgeLabel;html=1;align=center;verticalAlign=middle;resizable=0;points=[];fontFamily=pretendard;fontSource=%3Clink%20rel%3D%22stylesheet%22%20as%3D%22style%22%20crossorigin%20href%3D%22https%3A%2F%2Fcdn.jsdelivr.net%2Fgh%2Forioncactus%2Fpretendard%40v1.3.9%2Fdist%2Fweb%2Fvariable%2Fpretendardvariable.min.css%22%20%2F%3E;fontSize=8;" connectable="0" vertex="1" parent="IzsNU7jMBQwgcsb1FpVf-114">
          <mxGeometry x="0.2067" y="-2" relative="1" as="geometry">
            <mxPoint as="offset" />
          </mxGeometry>
        </mxCell>
        <mxCell id="IzsNU7jMBQwgcsb1FpVf-227" style="edgeStyle=orthogonalEdgeStyle;rounded=0;orthogonalLoop=1;jettySize=auto;html=1;entryX=0;entryY=0.5;entryDx=0;entryDy=0;fontFamily=pretendard;fontSource=%3Clink%20rel%3D%22stylesheet%22%20as%3D%22style%22%20crossorigin%20href%3D%22https%3A%2F%2Fcdn.jsdelivr.net%2Fgh%2Forioncactus%2Fpretendard%40v1.3.9%2Fdist%2Fweb%2Fvariable%2Fpretendardvariable.min.css%22%20%2F%3E;fontSize=8;" edge="1" parent="1" source="IzsNU7jMBQwgcsb1FpVf-115" target="IzsNU7jMBQwgcsb1FpVf-21">
          <mxGeometry relative="1" as="geometry">
            <Array as="points">
              <mxPoint x="760" y="1085" />
              <mxPoint x="760" y="440" />
            </Array>
          </mxGeometry>
        </mxCell>
        <mxCell id="IzsNU7jMBQwgcsb1FpVf-115" value="3초 유지 여부 확인&lt;br style=&quot;font-size: 8px;&quot;&gt;(카운트다운)" style="rhombus;whiteSpace=wrap;html=1;fontFamily=pretendard;fontSource=%3Clink%20rel%3D%22stylesheet%22%20as%3D%22style%22%20crossorigin%20href%3D%22https%3A%2F%2Fcdn.jsdelivr.net%2Fgh%2Forioncactus%2Fpretendard%40v1.3.9%2Fdist%2Fweb%2Fvariable%2Fpretendardvariable.min.css%22%20%2F%3E;fontSize=8;" vertex="1" parent="1">
          <mxGeometry x="635" y="1045" width="118" height="80" as="geometry" />
        </mxCell>
        <mxCell id="IzsNU7jMBQwgcsb1FpVf-118" value="회피 실패&lt;br style=&quot;font-size: 8px;&quot;&gt;(생존자 영구 탈락)&lt;br style=&quot;font-size: 8px;&quot;&gt;메세지" style="rounded=0;whiteSpace=wrap;html=1;fontFamily=pretendard;fontSource=%3Clink%20rel%3D%22stylesheet%22%20as%3D%22style%22%20crossorigin%20href%3D%22https%3A%2F%2Fcdn.jsdelivr.net%2Fgh%2Forioncactus%2Fpretendard%40v1.3.9%2Fdist%2Fweb%2Fvariable%2Fpretendardvariable.min.css%22%20%2F%3E;fontSize=8;" vertex="1" parent="1">
          <mxGeometry x="919" y="1155" width="118" height="60" as="geometry" />
        </mxCell>
        <mxCell id="IzsNU7jMBQwgcsb1FpVf-119" style="edgeStyle=orthogonalEdgeStyle;rounded=0;orthogonalLoop=1;jettySize=auto;html=1;entryX=0.5;entryY=0;entryDx=0;entryDy=0;fontFamily=pretendard;fontSource=%3Clink%20rel%3D%22stylesheet%22%20as%3D%22style%22%20crossorigin%20href%3D%22https%3A%2F%2Fcdn.jsdelivr.net%2Fgh%2Forioncactus%2Fpretendard%40v1.3.9%2Fdist%2Fweb%2Fvariable%2Fpretendardvariable.min.css%22%20%2F%3E;fontSize=8;" edge="1" parent="1" source="IzsNU7jMBQwgcsb1FpVf-120" target="IzsNU7jMBQwgcsb1FpVf-118">
          <mxGeometry relative="1" as="geometry" />
        </mxCell>
        <mxCell id="IzsNU7jMBQwgcsb1FpVf-259" value="Yes" style="edgeLabel;html=1;align=center;verticalAlign=middle;resizable=0;points=[];fontFamily=pretendard;fontSource=%3Clink%20rel%3D%22stylesheet%22%20as%3D%22style%22%20crossorigin%20href%3D%22https%3A%2F%2Fcdn.jsdelivr.net%2Fgh%2Forioncactus%2Fpretendard%40v1.3.9%2Fdist%2Fweb%2Fvariable%2Fpretendardvariable.min.css%22%20%2F%3E;fontSize=8;" connectable="0" vertex="1" parent="IzsNU7jMBQwgcsb1FpVf-119">
          <mxGeometry x="0.06" y="2" relative="1" as="geometry">
            <mxPoint as="offset" />
          </mxGeometry>
        </mxCell>
        <mxCell id="IzsNU7jMBQwgcsb1FpVf-228" style="edgeStyle=orthogonalEdgeStyle;rounded=0;orthogonalLoop=1;jettySize=auto;html=1;entryX=1;entryY=0.5;entryDx=0;entryDy=0;fontFamily=pretendard;fontSource=%3Clink%20rel%3D%22stylesheet%22%20as%3D%22style%22%20crossorigin%20href%3D%22https%3A%2F%2Fcdn.jsdelivr.net%2Fgh%2Forioncactus%2Fpretendard%40v1.3.9%2Fdist%2Fweb%2Fvariable%2Fpretendardvariable.min.css%22%20%2F%3E;fontSize=8;" edge="1" parent="1" source="IzsNU7jMBQwgcsb1FpVf-120" target="IzsNU7jMBQwgcsb1FpVf-21">
          <mxGeometry relative="1" as="geometry">
            <Array as="points">
              <mxPoint x="920" y="440" />
            </Array>
          </mxGeometry>
        </mxCell>
        <mxCell id="IzsNU7jMBQwgcsb1FpVf-120" value="3초 유지 여부 확인&lt;br style=&quot;font-size: 8px;&quot;&gt;(카운트다운)" style="rhombus;whiteSpace=wrap;html=1;fontFamily=pretendard;fontSource=%3Clink%20rel%3D%22stylesheet%22%20as%3D%22style%22%20crossorigin%20href%3D%22https%3A%2F%2Fcdn.jsdelivr.net%2Fgh%2Forioncactus%2Fpretendard%40v1.3.9%2Fdist%2Fweb%2Fvariable%2Fpretendardvariable.min.css%22%20%2F%3E;fontSize=8;" vertex="1" parent="1">
          <mxGeometry x="919" y="1045" width="118" height="80" as="geometry" />
        </mxCell>
        <mxCell id="IzsNU7jMBQwgcsb1FpVf-141" style="edgeStyle=orthogonalEdgeStyle;rounded=0;orthogonalLoop=1;jettySize=auto;html=1;entryX=0.5;entryY=0;entryDx=0;entryDy=0;exitX=0;exitY=0.5;exitDx=0;exitDy=0;fontFamily=pretendard;fontSource=%3Clink%20rel%3D%22stylesheet%22%20as%3D%22style%22%20crossorigin%20href%3D%22https%3A%2F%2Fcdn.jsdelivr.net%2Fgh%2Forioncactus%2Fpretendard%40v1.3.9%2Fdist%2Fweb%2Fvariable%2Fpretendardvariable.min.css%22%20%2F%3E;fontSize=8;" edge="1" parent="1" source="IzsNU7jMBQwgcsb1FpVf-88" target="IzsNU7jMBQwgcsb1FpVf-115">
          <mxGeometry relative="1" as="geometry">
            <mxPoint x="760" y="975" as="sourcePoint" />
            <mxPoint x="700" y="1045" as="targetPoint" />
          </mxGeometry>
        </mxCell>
        <mxCell id="IzsNU7jMBQwgcsb1FpVf-142" value="=&#39;최초&#39;" style="edgeLabel;html=1;align=center;verticalAlign=middle;resizable=0;points=[];fontFamily=pretendard;fontSource=%3Clink%20rel%3D%22stylesheet%22%20as%3D%22style%22%20crossorigin%20href%3D%22https%3A%2F%2Fcdn.jsdelivr.net%2Fgh%2Forioncactus%2Fpretendard%40v1.3.9%2Fdist%2Fweb%2Fvariable%2Fpretendardvariable.min.css%22%20%2F%3E;fontSize=8;" connectable="0" vertex="1" parent="IzsNU7jMBQwgcsb1FpVf-141">
          <mxGeometry x="-0.5014" y="2" relative="1" as="geometry">
            <mxPoint y="-2" as="offset" />
          </mxGeometry>
        </mxCell>
        <mxCell id="IzsNU7jMBQwgcsb1FpVf-143" style="edgeStyle=orthogonalEdgeStyle;rounded=0;orthogonalLoop=1;jettySize=auto;html=1;entryX=0.5;entryY=0;entryDx=0;entryDy=0;fontFamily=pretendard;fontSource=%3Clink%20rel%3D%22stylesheet%22%20as%3D%22style%22%20crossorigin%20href%3D%22https%3A%2F%2Fcdn.jsdelivr.net%2Fgh%2Forioncactus%2Fpretendard%40v1.3.9%2Fdist%2Fweb%2Fvariable%2Fpretendardvariable.min.css%22%20%2F%3E;fontSize=8;" edge="1" parent="1" source="IzsNU7jMBQwgcsb1FpVf-88" target="IzsNU7jMBQwgcsb1FpVf-120">
          <mxGeometry relative="1" as="geometry">
            <mxPoint x="910" y="945" as="sourcePoint" />
            <mxPoint x="990" y="1005" as="targetPoint" />
          </mxGeometry>
        </mxCell>
        <mxCell id="IzsNU7jMBQwgcsb1FpVf-144" value="=&#39;부활&#39;" style="edgeLabel;html=1;align=center;verticalAlign=middle;resizable=0;points=[];fontFamily=pretendard;fontSource=%3Clink%20rel%3D%22stylesheet%22%20as%3D%22style%22%20crossorigin%20href%3D%22https%3A%2F%2Fcdn.jsdelivr.net%2Fgh%2Forioncactus%2Fpretendard%40v1.3.9%2Fdist%2Fweb%2Fvariable%2Fpretendardvariable.min.css%22%20%2F%3E;fontSize=8;" connectable="0" vertex="1" parent="IzsNU7jMBQwgcsb1FpVf-143">
          <mxGeometry x="-0.5215" y="3" relative="1" as="geometry">
            <mxPoint x="1" y="3" as="offset" />
          </mxGeometry>
        </mxCell>
        <mxCell id="IzsNU7jMBQwgcsb1FpVf-231" style="edgeStyle=orthogonalEdgeStyle;rounded=0;orthogonalLoop=1;jettySize=auto;html=1;fontFamily=pretendard;fontSource=%3Clink%20rel%3D%22stylesheet%22%20as%3D%22style%22%20crossorigin%20href%3D%22https%3A%2F%2Fcdn.jsdelivr.net%2Fgh%2Forioncactus%2Fpretendard%40v1.3.9%2Fdist%2Fweb%2Fvariable%2Fpretendardvariable.min.css%22%20%2F%3E;fontSize=8;" edge="1" parent="1" source="IzsNU7jMBQwgcsb1FpVf-147">
          <mxGeometry relative="1" as="geometry">
            <mxPoint x="920" y="760" as="targetPoint" />
            <Array as="points">
              <mxPoint x="1040" y="985" />
              <mxPoint x="1040" y="760" />
            </Array>
          </mxGeometry>
        </mxCell>
        <mxCell id="IzsNU7jMBQwgcsb1FpVf-147" value="미션 구역 &lt;br style=&quot;font-size: 8px;&quot;&gt;점령 기준 &lt;br style=&quot;font-size: 8px;&quot;&gt;시간 (e.g. 60초)&lt;br style=&quot;font-size: 8px;&quot;&gt;충족 확인" style="rhombus;whiteSpace=wrap;html=1;fontFamily=pretendard;fontSource=%3Clink%20rel%3D%22stylesheet%22%20as%3D%22style%22%20crossorigin%20href%3D%22https%3A%2F%2Fcdn.jsdelivr.net%2Fgh%2Forioncactus%2Fpretendard%40v1.3.9%2Fdist%2Fweb%2Fvariable%2Fpretendardvariable.min.css%22%20%2F%3E;fontSize=8;" vertex="1" parent="1">
          <mxGeometry x="1080" y="945" width="120" height="80" as="geometry" />
        </mxCell>
        <mxCell id="IzsNU7jMBQwgcsb1FpVf-235" style="edgeStyle=orthogonalEdgeStyle;rounded=0;orthogonalLoop=1;jettySize=auto;html=1;entryX=0.5;entryY=1;entryDx=0;entryDy=0;fontFamily=pretendard;fontSource=%3Clink%20rel%3D%22stylesheet%22%20as%3D%22style%22%20crossorigin%20href%3D%22https%3A%2F%2Fcdn.jsdelivr.net%2Fgh%2Forioncactus%2Fpretendard%40v1.3.9%2Fdist%2Fweb%2Fvariable%2Fpretendardvariable.min.css%22%20%2F%3E;fontSize=8;" edge="1" parent="1" source="IzsNU7jMBQwgcsb1FpVf-148" target="IzsNU7jMBQwgcsb1FpVf-236">
          <mxGeometry relative="1" as="geometry">
            <mxPoint x="1060" y="1060" as="targetPoint" />
            <Array as="points">
              <mxPoint x="1060" y="1085" />
            </Array>
          </mxGeometry>
        </mxCell>
        <mxCell id="IzsNU7jMBQwgcsb1FpVf-263" value="" style="edgeStyle=orthogonalEdgeStyle;rounded=0;orthogonalLoop=1;jettySize=auto;html=1;fontFamily=pretendard;fontSource=%3Clink%20rel%3D%22stylesheet%22%20as%3D%22style%22%20crossorigin%20href%3D%22https%3A%2F%2Fcdn.jsdelivr.net%2Fgh%2Forioncactus%2Fpretendard%40v1.3.9%2Fdist%2Fweb%2Fvariable%2Fpretendardvariable.min.css%22%20%2F%3E;fontSize=8;" edge="1" parent="1" source="IzsNU7jMBQwgcsb1FpVf-148" target="IzsNU7jMBQwgcsb1FpVf-26">
          <mxGeometry relative="1" as="geometry" />
        </mxCell>
        <mxCell id="IzsNU7jMBQwgcsb1FpVf-265" value="Yes" style="edgeLabel;html=1;align=center;verticalAlign=middle;resizable=0;points=[];fontFamily=pretendard;fontSource=%3Clink%20rel%3D%22stylesheet%22%20as%3D%22style%22%20crossorigin%20href%3D%22https%3A%2F%2Fcdn.jsdelivr.net%2Fgh%2Forioncactus%2Fpretendard%40v1.3.9%2Fdist%2Fweb%2Fvariable%2Fpretendardvariable.min.css%22%20%2F%3E;fontSize=8;" connectable="0" vertex="1" parent="IzsNU7jMBQwgcsb1FpVf-263">
          <mxGeometry x="0.5412" relative="1" as="geometry">
            <mxPoint as="offset" />
          </mxGeometry>
        </mxCell>
        <mxCell id="IzsNU7jMBQwgcsb1FpVf-148" value="랜덤 주기로&lt;span style=&quot;background-color: initial; font-size: 8px;&quot;&gt;&amp;nbsp;등장하는&lt;/span&gt;&lt;div style=&quot;font-size: 8px;&quot;&gt;&lt;div style=&quot;font-size: 8px;&quot;&gt;&#39;타이밍 맞추기&#39; 게임&lt;br style=&quot;font-size: 8px;&quot;&gt;성공 여부&lt;/div&gt;&lt;/div&gt;" style="rhombus;whiteSpace=wrap;html=1;fontFamily=pretendard;fontSource=%3Clink%20rel%3D%22stylesheet%22%20as%3D%22style%22%20crossorigin%20href%3D%22https%3A%2F%2Fcdn.jsdelivr.net%2Fgh%2Forioncactus%2Fpretendard%40v1.3.9%2Fdist%2Fweb%2Fvariable%2Fpretendardvariable.min.css%22%20%2F%3E;fontSize=8;" vertex="1" parent="1">
          <mxGeometry x="1080" y="1045" width="120" height="80" as="geometry" />
        </mxCell>
        <mxCell id="IzsNU7jMBQwgcsb1FpVf-151" style="edgeStyle=orthogonalEdgeStyle;rounded=0;orthogonalLoop=1;jettySize=auto;html=1;entryX=0.855;entryY=1;entryDx=0;entryDy=-2.223339233398437;entryPerimeter=0;fontFamily=pretendard;fontSource=%3Clink%20rel%3D%22stylesheet%22%20as%3D%22style%22%20crossorigin%20href%3D%22https%3A%2F%2Fcdn.jsdelivr.net%2Fgh%2Forioncactus%2Fpretendard%40v1.3.9%2Fdist%2Fweb%2Fvariable%2Fpretendardvariable.min.css%22%20%2F%3E;fontSize=8;" edge="1" parent="1" source="IzsNU7jMBQwgcsb1FpVf-26" target="IzsNU7jMBQwgcsb1FpVf-69">
          <mxGeometry relative="1" as="geometry">
            <Array as="points">
              <mxPoint x="1140" y="1260" />
              <mxPoint x="568" y="1260" />
            </Array>
          </mxGeometry>
        </mxCell>
        <mxCell id="IzsNU7jMBQwgcsb1FpVf-233" style="edgeStyle=orthogonalEdgeStyle;rounded=0;orthogonalLoop=1;jettySize=auto;html=1;fontFamily=pretendard;fontSource=%3Clink%20rel%3D%22stylesheet%22%20as%3D%22style%22%20crossorigin%20href%3D%22https%3A%2F%2Fcdn.jsdelivr.net%2Fgh%2Forioncactus%2Fpretendard%40v1.3.9%2Fdist%2Fweb%2Fvariable%2Fpretendardvariable.min.css%22%20%2F%3E;fontSize=8;" edge="1" parent="1" source="IzsNU7jMBQwgcsb1FpVf-153">
          <mxGeometry relative="1" as="geometry">
            <mxPoint x="920" y="760" as="targetPoint" />
            <Array as="points">
              <mxPoint x="1250" y="985" />
              <mxPoint x="1250" y="760" />
            </Array>
          </mxGeometry>
        </mxCell>
        <mxCell id="IzsNU7jMBQwgcsb1FpVf-153" value="구출 기준 &lt;br style=&quot;font-size: 8px;&quot;&gt;시간(e.g. 3초)&lt;br style=&quot;font-size: 8px;&quot;&gt;&amp;nbsp;충족 확인" style="rhombus;whiteSpace=wrap;html=1;fontFamily=pretendard;fontSource=%3Clink%20rel%3D%22stylesheet%22%20as%3D%22style%22%20crossorigin%20href%3D%22https%3A%2F%2Fcdn.jsdelivr.net%2Fgh%2Forioncactus%2Fpretendard%40v1.3.9%2Fdist%2Fweb%2Fvariable%2Fpretendardvariable.min.css%22%20%2F%3E;fontSize=8;" vertex="1" parent="1">
          <mxGeometry x="1300" y="945" width="120" height="80" as="geometry" />
        </mxCell>
        <mxCell id="IzsNU7jMBQwgcsb1FpVf-156" style="edgeStyle=orthogonalEdgeStyle;rounded=0;orthogonalLoop=1;jettySize=auto;html=1;entryX=1;entryY=1;entryDx=0;entryDy=-7.66668701171875;entryPerimeter=0;fontFamily=pretendard;fontSource=%3Clink%20rel%3D%22stylesheet%22%20as%3D%22style%22%20crossorigin%20href%3D%22https%3A%2F%2Fcdn.jsdelivr.net%2Fgh%2Forioncactus%2Fpretendard%40v1.3.9%2Fdist%2Fweb%2Fvariable%2Fpretendardvariable.min.css%22%20%2F%3E;fontSize=8;" edge="1" parent="1" source="IzsNU7jMBQwgcsb1FpVf-85" target="IzsNU7jMBQwgcsb1FpVf-69">
          <mxGeometry relative="1" as="geometry">
            <Array as="points">
              <mxPoint x="1360" y="1260" />
              <mxPoint x="580" y="1260" />
            </Array>
          </mxGeometry>
        </mxCell>
        <mxCell id="IzsNU7jMBQwgcsb1FpVf-187" value="" style="edgeStyle=orthogonalEdgeStyle;rounded=0;orthogonalLoop=1;jettySize=auto;html=1;fontFamily=pretendard;fontSource=%3Clink%20rel%3D%22stylesheet%22%20as%3D%22style%22%20crossorigin%20href%3D%22https%3A%2F%2Fcdn.jsdelivr.net%2Fgh%2Forioncactus%2Fpretendard%40v1.3.9%2Fdist%2Fweb%2Fvariable%2Fpretendardvariable.min.css%22%20%2F%3E;fontSize=8;" edge="1" parent="1" source="IzsNU7jMBQwgcsb1FpVf-158" target="IzsNU7jMBQwgcsb1FpVf-166">
          <mxGeometry relative="1" as="geometry" />
        </mxCell>
        <mxCell id="IzsNU7jMBQwgcsb1FpVf-158" value="일정 시간(e.g. 60초)&amp;nbsp;이내&lt;div style=&quot;font-size: 8px;&quot;&gt;감옥 복귀하라는 &lt;br style=&quot;font-size: 8px;&quot;&gt;메세지&lt;/div&gt;" style="rounded=0;whiteSpace=wrap;html=1;fontFamily=pretendard;fontSource=%3Clink%20rel%3D%22stylesheet%22%20as%3D%22style%22%20crossorigin%20href%3D%22https%3A%2F%2Fcdn.jsdelivr.net%2Fgh%2Forioncactus%2Fpretendard%40v1.3.9%2Fdist%2Fweb%2Fvariable%2Fpretendardvariable.min.css%22%20%2F%3E;fontSize=8;" vertex="1" parent="1">
          <mxGeometry x="635" y="1285" width="118" height="60" as="geometry" />
        </mxCell>
        <mxCell id="IzsNU7jMBQwgcsb1FpVf-191" value="" style="edgeStyle=orthogonalEdgeStyle;rounded=0;orthogonalLoop=1;jettySize=auto;html=1;entryX=0.5;entryY=0;entryDx=0;entryDy=0;fontFamily=pretendard;fontSource=%3Clink%20rel%3D%22stylesheet%22%20as%3D%22style%22%20crossorigin%20href%3D%22https%3A%2F%2Fcdn.jsdelivr.net%2Fgh%2Forioncactus%2Fpretendard%40v1.3.9%2Fdist%2Fweb%2Fvariable%2Fpretendardvariable.min.css%22%20%2F%3E;fontSize=8;" edge="1" parent="1" source="IzsNU7jMBQwgcsb1FpVf-166" target="IzsNU7jMBQwgcsb1FpVf-192">
          <mxGeometry relative="1" as="geometry" />
        </mxCell>
        <mxCell id="IzsNU7jMBQwgcsb1FpVf-260" value="Yes" style="edgeLabel;html=1;align=center;verticalAlign=middle;resizable=0;points=[];fontFamily=pretendard;fontSource=%3Clink%20rel%3D%22stylesheet%22%20as%3D%22style%22%20crossorigin%20href%3D%22https%3A%2F%2Fcdn.jsdelivr.net%2Fgh%2Forioncactus%2Fpretendard%40v1.3.9%2Fdist%2Fweb%2Fvariable%2Fpretendardvariable.min.css%22%20%2F%3E;fontSize=8;" connectable="0" vertex="1" parent="IzsNU7jMBQwgcsb1FpVf-191">
          <mxGeometry x="-0.6986" relative="1" as="geometry">
            <mxPoint as="offset" />
          </mxGeometry>
        </mxCell>
        <mxCell id="IzsNU7jMBQwgcsb1FpVf-202" style="edgeStyle=orthogonalEdgeStyle;rounded=0;orthogonalLoop=1;jettySize=auto;html=1;entryX=0.25;entryY=0;entryDx=0;entryDy=0;fontFamily=pretendard;fontSource=%3Clink%20rel%3D%22stylesheet%22%20as%3D%22style%22%20crossorigin%20href%3D%22https%3A%2F%2Fcdn.jsdelivr.net%2Fgh%2Forioncactus%2Fpretendard%40v1.3.9%2Fdist%2Fweb%2Fvariable%2Fpretendardvariable.min.css%22%20%2F%3E;fontSize=8;" edge="1" parent="1" source="IzsNU7jMBQwgcsb1FpVf-166" target="IzsNU7jMBQwgcsb1FpVf-199">
          <mxGeometry relative="1" as="geometry">
            <mxPoint x="860" y="1420" as="targetPoint" />
          </mxGeometry>
        </mxCell>
        <mxCell id="IzsNU7jMBQwgcsb1FpVf-166" value="시간 내 감옥&lt;div style=&quot;font-size: 8px;&quot;&gt;태그 여부 확인&lt;/div&gt;" style="rhombus;whiteSpace=wrap;html=1;fontFamily=pretendard;fontSource=%3Clink%20rel%3D%22stylesheet%22%20as%3D%22style%22%20crossorigin%20href%3D%22https%3A%2F%2Fcdn.jsdelivr.net%2Fgh%2Forioncactus%2Fpretendard%40v1.3.9%2Fdist%2Fweb%2Fvariable%2Fpretendardvariable.min.css%22%20%2F%3E;fontSize=8;" vertex="1" parent="1">
          <mxGeometry x="635" y="1380" width="118" height="80" as="geometry" />
        </mxCell>
        <mxCell id="IzsNU7jMBQwgcsb1FpVf-181" style="edgeStyle=orthogonalEdgeStyle;rounded=0;orthogonalLoop=1;jettySize=auto;html=1;fontFamily=pretendard;fontSource=%3Clink%20rel%3D%22stylesheet%22%20as%3D%22style%22%20crossorigin%20href%3D%22https%3A%2F%2Fcdn.jsdelivr.net%2Fgh%2Forioncactus%2Fpretendard%40v1.3.9%2Fdist%2Fweb%2Fvariable%2Fpretendardvariable.min.css%22%20%2F%3E;fontSize=8;" edge="1" parent="1" source="IzsNU7jMBQwgcsb1FpVf-171" target="IzsNU7jMBQwgcsb1FpVf-180">
          <mxGeometry relative="1" as="geometry" />
        </mxCell>
        <mxCell id="IzsNU7jMBQwgcsb1FpVf-273" value="Yes" style="edgeLabel;html=1;align=center;verticalAlign=middle;resizable=0;points=[];fontFamily=pretendard;fontSource=%3Clink%20rel%3D%22stylesheet%22%20as%3D%22style%22%20crossorigin%20href%3D%22https%3A%2F%2Fcdn.jsdelivr.net%2Fgh%2Forioncactus%2Fpretendard%40v1.3.9%2Fdist%2Fweb%2Fvariable%2Fpretendardvariable.min.css%22%20%2F%3E;fontSize=8;" connectable="0" vertex="1" parent="IzsNU7jMBQwgcsb1FpVf-181">
          <mxGeometry x="-0.7786" y="-1" relative="1" as="geometry">
            <mxPoint as="offset" />
          </mxGeometry>
        </mxCell>
        <mxCell id="IzsNU7jMBQwgcsb1FpVf-205" style="edgeStyle=orthogonalEdgeStyle;rounded=0;orthogonalLoop=1;jettySize=auto;html=1;entryX=0;entryY=0.5;entryDx=0;entryDy=0;fontFamily=pretendard;fontSource=%3Clink%20rel%3D%22stylesheet%22%20as%3D%22style%22%20crossorigin%20href%3D%22https%3A%2F%2Fcdn.jsdelivr.net%2Fgh%2Forioncactus%2Fpretendard%40v1.3.9%2Fdist%2Fweb%2Fvariable%2Fpretendardvariable.min.css%22%20%2F%3E;fontSize=8;" edge="1" parent="1" source="IzsNU7jMBQwgcsb1FpVf-167" target="IzsNU7jMBQwgcsb1FpVf-171">
          <mxGeometry relative="1" as="geometry" />
        </mxCell>
        <mxCell id="IzsNU7jMBQwgcsb1FpVf-272" value="Yes" style="edgeLabel;html=1;align=center;verticalAlign=middle;resizable=0;points=[];fontFamily=pretendard;fontSource=%3Clink%20rel%3D%22stylesheet%22%20as%3D%22style%22%20crossorigin%20href%3D%22https%3A%2F%2Fcdn.jsdelivr.net%2Fgh%2Forioncactus%2Fpretendard%40v1.3.9%2Fdist%2Fweb%2Fvariable%2Fpretendardvariable.min.css%22%20%2F%3E;fontSize=8;" connectable="0" vertex="1" parent="IzsNU7jMBQwgcsb1FpVf-205">
          <mxGeometry x="-0.9028" y="1" relative="1" as="geometry">
            <mxPoint as="offset" />
          </mxGeometry>
        </mxCell>
        <mxCell id="IzsNU7jMBQwgcsb1FpVf-167" value="제한 속도 &lt;br style=&quot;font-size: 8px;&quot;&gt;(초속 1.7m)&lt;br style=&quot;font-size: 8px;&quot;&gt;초과 여부 확인&lt;br style=&quot;font-size: 8px;&quot;&gt;(비동기)" style="rhombus;whiteSpace=wrap;html=1;fontFamily=pretendard;fontSource=%3Clink%20rel%3D%22stylesheet%22%20as%3D%22style%22%20crossorigin%20href%3D%22https%3A%2F%2Fcdn.jsdelivr.net%2Fgh%2Forioncactus%2Fpretendard%40v1.3.9%2Fdist%2Fweb%2Fvariable%2Fpretendardvariable.min.css%22%20%2F%3E;fontSize=8;" vertex="1" parent="1">
          <mxGeometry x="780" y="520" width="120" height="80" as="geometry" />
        </mxCell>
        <mxCell id="IzsNU7jMBQwgcsb1FpVf-178" style="edgeStyle=orthogonalEdgeStyle;rounded=0;orthogonalLoop=1;jettySize=auto;html=1;entryX=1;entryY=0.5;entryDx=0;entryDy=0;fontFamily=pretendard;fontSource=%3Clink%20rel%3D%22stylesheet%22%20as%3D%22style%22%20crossorigin%20href%3D%22https%3A%2F%2Fcdn.jsdelivr.net%2Fgh%2Forioncactus%2Fpretendard%40v1.3.9%2Fdist%2Fweb%2Fvariable%2Fpretendardvariable.min.css%22%20%2F%3E;fontSize=8;" edge="1" parent="1" source="IzsNU7jMBQwgcsb1FpVf-169" target="IzsNU7jMBQwgcsb1FpVf-176">
          <mxGeometry relative="1" as="geometry" />
        </mxCell>
        <mxCell id="IzsNU7jMBQwgcsb1FpVf-274" value="Yes" style="edgeLabel;html=1;align=center;verticalAlign=middle;resizable=0;points=[];fontFamily=pretendard;fontSource=%3Clink%20rel%3D%22stylesheet%22%20as%3D%22style%22%20crossorigin%20href%3D%22https%3A%2F%2Fcdn.jsdelivr.net%2Fgh%2Forioncactus%2Fpretendard%40v1.3.9%2Fdist%2Fweb%2Fvariable%2Fpretendardvariable.min.css%22%20%2F%3E;fontSize=8;" connectable="0" vertex="1" parent="IzsNU7jMBQwgcsb1FpVf-178">
          <mxGeometry x="-0.9281" relative="1" as="geometry">
            <mxPoint as="offset" />
          </mxGeometry>
        </mxCell>
        <mxCell id="IzsNU7jMBQwgcsb1FpVf-275" value="Yes" style="edgeLabel;html=1;align=center;verticalAlign=middle;resizable=0;points=[];fontFamily=pretendard;fontSource=%3Clink%20rel%3D%22stylesheet%22%20as%3D%22style%22%20crossorigin%20href%3D%22https%3A%2F%2Fcdn.jsdelivr.net%2Fgh%2Forioncactus%2Fpretendard%40v1.3.9%2Fdist%2Fweb%2Fvariable%2Fpretendardvariable.min.css%22%20%2F%3E;fontSize=8;" connectable="0" vertex="1" parent="IzsNU7jMBQwgcsb1FpVf-178">
          <mxGeometry x="0.8503" relative="1" as="geometry">
            <mxPoint as="offset" />
          </mxGeometry>
        </mxCell>
        <mxCell id="IzsNU7jMBQwgcsb1FpVf-169" value="제한 속도 &lt;br style=&quot;font-size: 8px;&quot;&gt;(초속 2.2m)&lt;br style=&quot;font-size: 8px;&quot;&gt;초과 여부 확인&lt;br style=&quot;font-size: 8px;&quot;&gt;(비동기)" style="rhombus;whiteSpace=wrap;html=1;fontFamily=pretendard;fontSource=%3Clink%20rel%3D%22stylesheet%22%20as%3D%22style%22%20crossorigin%20href%3D%22https%3A%2F%2Fcdn.jsdelivr.net%2Fgh%2Forioncactus%2Fpretendard%40v1.3.9%2Fdist%2Fweb%2Fvariable%2Fpretendardvariable.min.css%22%20%2F%3E;fontSize=8;" vertex="1" parent="1">
          <mxGeometry x="180" y="520" width="120" height="80" as="geometry" />
        </mxCell>
        <mxCell id="IzsNU7jMBQwgcsb1FpVf-216" style="edgeStyle=orthogonalEdgeStyle;rounded=0;orthogonalLoop=1;jettySize=auto;html=1;entryX=0;entryY=0.5;entryDx=0;entryDy=0;exitX=0.5;exitY=0;exitDx=0;exitDy=0;fontFamily=pretendard;fontSource=%3Clink%20rel%3D%22stylesheet%22%20as%3D%22style%22%20crossorigin%20href%3D%22https%3A%2F%2Fcdn.jsdelivr.net%2Fgh%2Forioncactus%2Fpretendard%40v1.3.9%2Fdist%2Fweb%2Fvariable%2Fpretendardvariable.min.css%22%20%2F%3E;fontSize=8;" edge="1" parent="1" source="IzsNU7jMBQwgcsb1FpVf-170" target="mdggnLScHl-GK5U8O3dx-4">
          <mxGeometry relative="1" as="geometry">
            <Array as="points">
              <mxPoint x="-10" y="440" />
            </Array>
          </mxGeometry>
        </mxCell>
        <mxCell id="IzsNU7jMBQwgcsb1FpVf-170" value="제한 속도 &lt;br style=&quot;font-size: 8px;&quot;&gt;(초속 2.73m)&lt;br style=&quot;font-size: 8px;&quot;&gt;초과 여부 확인&lt;br style=&quot;font-size: 8px;&quot;&gt;(비동기)" style="rhombus;whiteSpace=wrap;html=1;fontFamily=pretendard;fontSource=%3Clink%20rel%3D%22stylesheet%22%20as%3D%22style%22%20crossorigin%20href%3D%22https%3A%2F%2Fcdn.jsdelivr.net%2Fgh%2Forioncactus%2Fpretendard%40v1.3.9%2Fdist%2Fweb%2Fvariable%2Fpretendardvariable.min.css%22%20%2F%3E;fontSize=8;" vertex="1" parent="1">
          <mxGeometry x="-70" y="520" width="120" height="80" as="geometry" />
        </mxCell>
        <mxCell id="IzsNU7jMBQwgcsb1FpVf-174" value="1차 경고음" style="rounded=0;whiteSpace=wrap;html=1;fontFamily=pretendard;fontSource=%3Clink%20rel%3D%22stylesheet%22%20as%3D%22style%22%20crossorigin%20href%3D%22https%3A%2F%2Fcdn.jsdelivr.net%2Fgh%2Forioncactus%2Fpretendard%40v1.3.9%2Fdist%2Fweb%2Fvariable%2Fpretendardvariable.min.css%22%20%2F%3E;fontSize=8;" vertex="1" parent="1">
          <mxGeometry x="70" y="530" width="80" height="60" as="geometry" />
        </mxCell>
        <mxCell id="IzsNU7jMBQwgcsb1FpVf-175" value="1차 경고음" style="rounded=0;whiteSpace=wrap;html=1;fontFamily=pretendard;fontSource=%3Clink%20rel%3D%22stylesheet%22%20as%3D%22style%22%20crossorigin%20href%3D%22https%3A%2F%2Fcdn.jsdelivr.net%2Fgh%2Forioncactus%2Fpretendard%40v1.3.9%2Fdist%2Fweb%2Fvariable%2Fpretendardvariable.min.css%22%20%2F%3E;fontSize=8;" vertex="1" parent="1">
          <mxGeometry x="980" y="530" width="80" height="60" as="geometry" />
        </mxCell>
        <mxCell id="IzsNU7jMBQwgcsb1FpVf-179" style="edgeStyle=orthogonalEdgeStyle;rounded=0;orthogonalLoop=1;jettySize=auto;html=1;entryX=0.5;entryY=0;entryDx=0;entryDy=0;fontFamily=pretendard;fontSource=%3Clink%20rel%3D%22stylesheet%22%20as%3D%22style%22%20crossorigin%20href%3D%22https%3A%2F%2Fcdn.jsdelivr.net%2Fgh%2Forioncactus%2Fpretendard%40v1.3.9%2Fdist%2Fweb%2Fvariable%2Fpretendardvariable.min.css%22%20%2F%3E;fontSize=8;" edge="1" parent="1" source="IzsNU7jMBQwgcsb1FpVf-176" target="IzsNU7jMBQwgcsb1FpVf-40">
          <mxGeometry relative="1" as="geometry">
            <Array as="points">
              <mxPoint x="-140" y="120" />
              <mxPoint x="1010" y="120" />
            </Array>
          </mxGeometry>
        </mxCell>
        <mxCell id="IzsNU7jMBQwgcsb1FpVf-176" value="패배 알림&lt;br style=&quot;font-size: 8px;&quot;&gt;/ 술래 속도 위반으로 인한 게임 종료" style="rounded=0;whiteSpace=wrap;html=1;fontFamily=pretendard;fontSource=%3Clink%20rel%3D%22stylesheet%22%20as%3D%22style%22%20crossorigin%20href%3D%22https%3A%2F%2Fcdn.jsdelivr.net%2Fgh%2Forioncactus%2Fpretendard%40v1.3.9%2Fdist%2Fweb%2Fvariable%2Fpretendardvariable.min.css%22%20%2F%3E;fontSize=8;" vertex="1" parent="1">
          <mxGeometry x="-180" y="530" width="80" height="60" as="geometry" />
        </mxCell>
        <mxCell id="IzsNU7jMBQwgcsb1FpVf-180" value="탈락 알림&lt;br style=&quot;font-size: 8px;&quot;&gt;/ 지정 속도 위반으로 인한 영구 탈락" style="rounded=0;whiteSpace=wrap;html=1;fontFamily=pretendard;fontSource=%3Clink%20rel%3D%22stylesheet%22%20as%3D%22style%22%20crossorigin%20href%3D%22https%3A%2F%2Fcdn.jsdelivr.net%2Fgh%2Forioncactus%2Fpretendard%40v1.3.9%2Fdist%2Fweb%2Fvariable%2Fpretendardvariable.min.css%22%20%2F%3E;fontSize=8;" vertex="1" parent="1">
          <mxGeometry x="1450" y="530" width="80" height="60" as="geometry" />
        </mxCell>
        <mxCell id="IzsNU7jMBQwgcsb1FpVf-183" style="edgeStyle=orthogonalEdgeStyle;rounded=0;orthogonalLoop=1;jettySize=auto;html=1;entryX=0.855;entryY=1;entryDx=0;entryDy=-2.223339233398437;entryPerimeter=0;fontFamily=pretendard;fontSource=%3Clink%20rel%3D%22stylesheet%22%20as%3D%22style%22%20crossorigin%20href%3D%22https%3A%2F%2Fcdn.jsdelivr.net%2Fgh%2Forioncactus%2Fpretendard%40v1.3.9%2Fdist%2Fweb%2Fvariable%2Fpretendardvariable.min.css%22%20%2F%3E;fontSize=8;" edge="1" parent="1" source="IzsNU7jMBQwgcsb1FpVf-118" target="IzsNU7jMBQwgcsb1FpVf-69">
          <mxGeometry relative="1" as="geometry">
            <Array as="points">
              <mxPoint x="978" y="1260" />
              <mxPoint x="568" y="1260" />
            </Array>
          </mxGeometry>
        </mxCell>
        <mxCell id="IzsNU7jMBQwgcsb1FpVf-240" style="edgeStyle=orthogonalEdgeStyle;rounded=0;orthogonalLoop=1;jettySize=auto;html=1;exitX=0.5;exitY=0;exitDx=0;exitDy=0;fontFamily=pretendard;fontSource=%3Clink%20rel%3D%22stylesheet%22%20as%3D%22style%22%20crossorigin%20href%3D%22https%3A%2F%2Fcdn.jsdelivr.net%2Fgh%2Forioncactus%2Fpretendard%40v1.3.9%2Fdist%2Fweb%2Fvariable%2Fpretendardvariable.min.css%22%20%2F%3E;fontSize=8;" edge="1" parent="1" source="IzsNU7jMBQwgcsb1FpVf-171">
          <mxGeometry relative="1" as="geometry">
            <mxPoint x="900" y="440" as="targetPoint" />
            <Array as="points">
              <mxPoint x="1240" y="440" />
            </Array>
          </mxGeometry>
        </mxCell>
        <mxCell id="IzsNU7jMBQwgcsb1FpVf-171" value="제한 속도 &lt;br style=&quot;font-size: 8px;&quot;&gt;(초속 2.4m)&lt;br style=&quot;font-size: 8px;&quot;&gt;초과 여부 확인&lt;br style=&quot;font-size: 8px;&quot;&gt;(비동기)" style="rhombus;whiteSpace=wrap;html=1;fontFamily=pretendard;fontSource=%3Clink%20rel%3D%22stylesheet%22%20as%3D%22style%22%20crossorigin%20href%3D%22https%3A%2F%2Fcdn.jsdelivr.net%2Fgh%2Forioncactus%2Fpretendard%40v1.3.9%2Fdist%2Fweb%2Fvariable%2Fpretendardvariable.min.css%22%20%2F%3E;fontSize=8;" vertex="1" parent="1">
          <mxGeometry x="1180" y="520" width="120" height="80" as="geometry" />
        </mxCell>
        <mxCell id="IzsNU7jMBQwgcsb1FpVf-186" style="edgeStyle=orthogonalEdgeStyle;rounded=0;orthogonalLoop=1;jettySize=auto;html=1;entryX=0.855;entryY=1;entryDx=0;entryDy=-2.223339233398437;entryPerimeter=0;fontFamily=pretendard;fontSource=%3Clink%20rel%3D%22stylesheet%22%20as%3D%22style%22%20crossorigin%20href%3D%22https%3A%2F%2Fcdn.jsdelivr.net%2Fgh%2Forioncactus%2Fpretendard%40v1.3.9%2Fdist%2Fweb%2Fvariable%2Fpretendardvariable.min.css%22%20%2F%3E;fontSize=8;" edge="1" parent="1" source="IzsNU7jMBQwgcsb1FpVf-180" target="IzsNU7jMBQwgcsb1FpVf-69">
          <mxGeometry relative="1" as="geometry">
            <Array as="points">
              <mxPoint x="1490" y="1260" />
              <mxPoint x="568" y="1260" />
            </Array>
          </mxGeometry>
        </mxCell>
        <mxCell id="IzsNU7jMBQwgcsb1FpVf-193" style="edgeStyle=orthogonalEdgeStyle;rounded=0;orthogonalLoop=1;jettySize=auto;html=1;entryX=0.855;entryY=1;entryDx=0;entryDy=-2.223339233398437;entryPerimeter=0;fontFamily=pretendard;fontSource=%3Clink%20rel%3D%22stylesheet%22%20as%3D%22style%22%20crossorigin%20href%3D%22https%3A%2F%2Fcdn.jsdelivr.net%2Fgh%2Forioncactus%2Fpretendard%40v1.3.9%2Fdist%2Fweb%2Fvariable%2Fpretendardvariable.min.css%22%20%2F%3E;fontSize=8;" edge="1" parent="1" source="IzsNU7jMBQwgcsb1FpVf-190" target="IzsNU7jMBQwgcsb1FpVf-69">
          <mxGeometry relative="1" as="geometry">
            <mxPoint x="570" y="1220" as="targetPoint" />
          </mxGeometry>
        </mxCell>
        <mxCell id="IzsNU7jMBQwgcsb1FpVf-285" value="상태&lt;br style=&quot;font-size: 8px;&quot;&gt;= &#39;구출 가능&#39;&lt;div style=&quot;font-size: 8px;&quot;&gt;으로 저장&lt;/div&gt;" style="edgeLabel;html=1;align=center;verticalAlign=middle;resizable=0;points=[];fontFamily=pretendard;fontSource=%3Clink%20rel%3D%22stylesheet%22%20as%3D%22style%22%20crossorigin%20href%3D%22https%3A%2F%2Fcdn.jsdelivr.net%2Fgh%2Forioncactus%2Fpretendard%40v1.3.9%2Fdist%2Fweb%2Fvariable%2Fpretendardvariable.min.css%22%20%2F%3E;fontSize=8;" connectable="0" vertex="1" parent="IzsNU7jMBQwgcsb1FpVf-193">
          <mxGeometry x="-0.8254" y="4" relative="1" as="geometry">
            <mxPoint x="-3" as="offset" />
          </mxGeometry>
        </mxCell>
        <mxCell id="IzsNU7jMBQwgcsb1FpVf-261" value="" style="edgeStyle=orthogonalEdgeStyle;rounded=0;orthogonalLoop=1;jettySize=auto;html=1;fontFamily=pretendard;fontSource=%3Clink%20rel%3D%22stylesheet%22%20as%3D%22style%22%20crossorigin%20href%3D%22https%3A%2F%2Fcdn.jsdelivr.net%2Fgh%2Forioncactus%2Fpretendard%40v1.3.9%2Fdist%2Fweb%2Fvariable%2Fpretendardvariable.min.css%22%20%2F%3E;fontSize=8;" edge="1" parent="1" source="IzsNU7jMBQwgcsb1FpVf-190" target="IzsNU7jMBQwgcsb1FpVf-192">
          <mxGeometry relative="1" as="geometry" />
        </mxCell>
        <mxCell id="IzsNU7jMBQwgcsb1FpVf-190" value="&#39;구출을 기다리고 있습니다.&#39;&lt;br style=&quot;font-size: 8px;&quot;&gt;카운트다운(e.g. 90초) 화면" style="rounded=0;whiteSpace=wrap;html=1;fontFamily=pretendard;fontSource=%3Clink%20rel%3D%22stylesheet%22%20as%3D%22style%22%20crossorigin%20href%3D%22https%3A%2F%2Fcdn.jsdelivr.net%2Fgh%2Forioncactus%2Fpretendard%40v1.3.9%2Fdist%2Fweb%2Fvariable%2Fpretendardvariable.min.css%22%20%2F%3E;fontSize=8;" vertex="1" parent="1">
          <mxGeometry x="635" y="1490" width="118" height="60" as="geometry" />
        </mxCell>
        <mxCell id="IzsNU7jMBQwgcsb1FpVf-195" value="" style="edgeStyle=orthogonalEdgeStyle;rounded=0;orthogonalLoop=1;jettySize=auto;html=1;fontFamily=pretendard;fontSource=%3Clink%20rel%3D%22stylesheet%22%20as%3D%22style%22%20crossorigin%20href%3D%22https%3A%2F%2Fcdn.jsdelivr.net%2Fgh%2Forioncactus%2Fpretendard%40v1.3.9%2Fdist%2Fweb%2Fvariable%2Fpretendardvariable.min.css%22%20%2F%3E;fontSize=8;" edge="1" parent="1" source="IzsNU7jMBQwgcsb1FpVf-192" target="IzsNU7jMBQwgcsb1FpVf-194">
          <mxGeometry relative="1" as="geometry" />
        </mxCell>
        <mxCell id="IzsNU7jMBQwgcsb1FpVf-262" value="Yes" style="edgeLabel;html=1;align=center;verticalAlign=middle;resizable=0;points=[];fontFamily=pretendard;fontSource=%3Clink%20rel%3D%22stylesheet%22%20as%3D%22style%22%20crossorigin%20href%3D%22https%3A%2F%2Fcdn.jsdelivr.net%2Fgh%2Forioncactus%2Fpretendard%40v1.3.9%2Fdist%2Fweb%2Fvariable%2Fpretendardvariable.min.css%22%20%2F%3E;fontSize=8;" connectable="0" vertex="1" parent="IzsNU7jMBQwgcsb1FpVf-195">
          <mxGeometry x="0.4457" relative="1" as="geometry">
            <mxPoint as="offset" />
          </mxGeometry>
        </mxCell>
        <mxCell id="IzsNU7jMBQwgcsb1FpVf-200" value="" style="edgeStyle=orthogonalEdgeStyle;rounded=0;orthogonalLoop=1;jettySize=auto;html=1;fontFamily=pretendard;fontSource=%3Clink%20rel%3D%22stylesheet%22%20as%3D%22style%22%20crossorigin%20href%3D%22https%3A%2F%2Fcdn.jsdelivr.net%2Fgh%2Forioncactus%2Fpretendard%40v1.3.9%2Fdist%2Fweb%2Fvariable%2Fpretendardvariable.min.css%22%20%2F%3E;fontSize=8;" edge="1" parent="1" source="IzsNU7jMBQwgcsb1FpVf-192" target="IzsNU7jMBQwgcsb1FpVf-199">
          <mxGeometry relative="1" as="geometry" />
        </mxCell>
        <mxCell id="IzsNU7jMBQwgcsb1FpVf-192" value="시간 내&lt;div style=&quot;font-size: 8px;&quot;&gt;구출 여부 확인&lt;/div&gt;" style="rhombus;whiteSpace=wrap;html=1;fontFamily=pretendard;fontSource=%3Clink%20rel%3D%22stylesheet%22%20as%3D%22style%22%20crossorigin%20href%3D%22https%3A%2F%2Fcdn.jsdelivr.net%2Fgh%2Forioncactus%2Fpretendard%40v1.3.9%2Fdist%2Fweb%2Fvariable%2Fpretendardvariable.min.css%22%20%2F%3E;fontSize=8;" vertex="1" parent="1">
          <mxGeometry x="635" y="1570" width="118" height="80" as="geometry" />
        </mxCell>
        <mxCell id="IzsNU7jMBQwgcsb1FpVf-198" style="edgeStyle=orthogonalEdgeStyle;rounded=0;orthogonalLoop=1;jettySize=auto;html=1;entryX=0.855;entryY=1;entryDx=0;entryDy=-2.223339233398437;entryPerimeter=0;fontFamily=pretendard;fontSource=%3Clink%20rel%3D%22stylesheet%22%20as%3D%22style%22%20crossorigin%20href%3D%22https%3A%2F%2Fcdn.jsdelivr.net%2Fgh%2Forioncactus%2Fpretendard%40v1.3.9%2Fdist%2Fweb%2Fvariable%2Fpretendardvariable.min.css%22%20%2F%3E;fontSize=8;" edge="1" parent="1" source="IzsNU7jMBQwgcsb1FpVf-194" target="IzsNU7jMBQwgcsb1FpVf-69">
          <mxGeometry relative="1" as="geometry">
            <mxPoint x="520" y="1380.0000000000002" as="targetPoint" />
          </mxGeometry>
        </mxCell>
        <mxCell id="IzsNU7jMBQwgcsb1FpVf-283" value="상태 = &#39;부활&#39;로 저장" style="edgeLabel;html=1;align=center;verticalAlign=middle;resizable=0;points=[];fontFamily=pretendard;fontSource=%3Clink%20rel%3D%22stylesheet%22%20as%3D%22style%22%20crossorigin%20href%3D%22https%3A%2F%2Fcdn.jsdelivr.net%2Fgh%2Forioncactus%2Fpretendard%40v1.3.9%2Fdist%2Fweb%2Fvariable%2Fpretendardvariable.min.css%22%20%2F%3E;fontSize=8;" connectable="0" vertex="1" parent="IzsNU7jMBQwgcsb1FpVf-198">
          <mxGeometry x="-0.5556" y="-2" relative="1" as="geometry">
            <mxPoint as="offset" />
          </mxGeometry>
        </mxCell>
        <mxCell id="IzsNU7jMBQwgcsb1FpVf-194" value="&#39;부활 성공&#39; 화면" style="rounded=0;whiteSpace=wrap;html=1;fontFamily=pretendard;fontSource=%3Clink%20rel%3D%22stylesheet%22%20as%3D%22style%22%20crossorigin%20href%3D%22https%3A%2F%2Fcdn.jsdelivr.net%2Fgh%2Forioncactus%2Fpretendard%40v1.3.9%2Fdist%2Fweb%2Fvariable%2Fpretendardvariable.min.css%22%20%2F%3E;fontSize=8;" vertex="1" parent="1">
          <mxGeometry x="635" y="1680" width="118" height="60" as="geometry" />
        </mxCell>
        <mxCell id="IzsNU7jMBQwgcsb1FpVf-201" style="edgeStyle=orthogonalEdgeStyle;rounded=0;orthogonalLoop=1;jettySize=auto;html=1;entryX=1;entryY=1;entryDx=0;entryDy=-7.66668701171875;entryPerimeter=0;fontFamily=pretendard;fontSource=%3Clink%20rel%3D%22stylesheet%22%20as%3D%22style%22%20crossorigin%20href%3D%22https%3A%2F%2Fcdn.jsdelivr.net%2Fgh%2Forioncactus%2Fpretendard%40v1.3.9%2Fdist%2Fweb%2Fvariable%2Fpretendardvariable.min.css%22%20%2F%3E;fontSize=8;" edge="1" parent="1" source="IzsNU7jMBQwgcsb1FpVf-199" target="IzsNU7jMBQwgcsb1FpVf-69">
          <mxGeometry relative="1" as="geometry">
            <mxPoint x="580" y="1210" as="targetPoint" />
            <Array as="points">
              <mxPoint x="859" y="1260" />
              <mxPoint x="580" y="1260" />
            </Array>
          </mxGeometry>
        </mxCell>
        <mxCell id="IzsNU7jMBQwgcsb1FpVf-284" value="&lt;font style=&quot;font-size: 8px;&quot;&gt;상태 &lt;br style=&quot;font-size: 8px;&quot;&gt;= &#39;영구탈락&#39;&lt;br style=&quot;font-size: 8px;&quot;&gt;으로 저장&lt;/font&gt;" style="edgeLabel;html=1;align=center;verticalAlign=middle;resizable=0;points=[];fontFamily=pretendard;fontSource=%3Clink%20rel%3D%22stylesheet%22%20as%3D%22style%22%20crossorigin%20href%3D%22https%3A%2F%2Fcdn.jsdelivr.net%2Fgh%2Forioncactus%2Fpretendard%40v1.3.9%2Fdist%2Fweb%2Fvariable%2Fpretendardvariable.min.css%22%20%2F%3E;fontSize=8;" connectable="0" vertex="1" parent="IzsNU7jMBQwgcsb1FpVf-201">
          <mxGeometry x="-0.7366" relative="1" as="geometry">
            <mxPoint y="-1" as="offset" />
          </mxGeometry>
        </mxCell>
        <mxCell id="IzsNU7jMBQwgcsb1FpVf-199" value="&#39;영구 탈락&#39; 화면" style="rounded=0;whiteSpace=wrap;html=1;fontFamily=pretendard;fontSource=%3Clink%20rel%3D%22stylesheet%22%20as%3D%22style%22%20crossorigin%20href%3D%22https%3A%2F%2Fcdn.jsdelivr.net%2Fgh%2Forioncactus%2Fpretendard%40v1.3.9%2Fdist%2Fweb%2Fvariable%2Fpretendardvariable.min.css%22%20%2F%3E;fontSize=8;" vertex="1" parent="1">
          <mxGeometry x="800" y="1580" width="118" height="60" as="geometry" />
        </mxCell>
        <mxCell id="IzsNU7jMBQwgcsb1FpVf-209" style="edgeStyle=orthogonalEdgeStyle;rounded=0;orthogonalLoop=1;jettySize=auto;html=1;entryX=0;entryY=0.5;entryDx=0;entryDy=0;exitX=0.855;exitY=0;exitDx=0;exitDy=2.223339233398437;exitPerimeter=0;fontFamily=pretendard;fontSource=%3Clink%20rel%3D%22stylesheet%22%20as%3D%22style%22%20crossorigin%20href%3D%22https%3A%2F%2Fcdn.jsdelivr.net%2Fgh%2Forioncactus%2Fpretendard%40v1.3.9%2Fdist%2Fweb%2Fvariable%2Fpretendardvariable.min.css%22%20%2F%3E;fontSize=8;" edge="1" parent="1" source="mdggnLScHl-GK5U8O3dx-2" target="IzsNU7jMBQwgcsb1FpVf-79">
          <mxGeometry relative="1" as="geometry">
            <mxPoint x="530" y="865" as="sourcePoint" />
            <mxPoint x="310" y="715" as="targetPoint" />
            <Array as="points">
              <mxPoint x="570" y="857" />
              <mxPoint x="570" y="700" />
            </Array>
          </mxGeometry>
        </mxCell>
        <mxCell id="IzsNU7jMBQwgcsb1FpVf-210" style="edgeStyle=orthogonalEdgeStyle;rounded=0;orthogonalLoop=1;jettySize=auto;html=1;entryX=1;entryY=0.5;entryDx=0;entryDy=0;fontFamily=pretendard;fontSource=%3Clink%20rel%3D%22stylesheet%22%20as%3D%22style%22%20crossorigin%20href%3D%22https%3A%2F%2Fcdn.jsdelivr.net%2Fgh%2Forioncactus%2Fpretendard%40v1.3.9%2Fdist%2Fweb%2Fvariable%2Fpretendardvariable.min.css%22%20%2F%3E;fontSize=8;" edge="1" parent="1" target="IzsNU7jMBQwgcsb1FpVf-27">
          <mxGeometry relative="1" as="geometry">
            <mxPoint x="520" y="855" as="sourcePoint" />
            <mxPoint x="300" y="705" as="targetPoint" />
            <Array as="points">
              <mxPoint x="520" y="790" />
            </Array>
          </mxGeometry>
        </mxCell>
        <mxCell id="IzsNU7jMBQwgcsb1FpVf-211" style="edgeStyle=orthogonalEdgeStyle;rounded=0;orthogonalLoop=1;jettySize=auto;html=1;entryX=0;entryY=0.5;entryDx=0;entryDy=0;fontFamily=pretendard;fontSource=%3Clink%20rel%3D%22stylesheet%22%20as%3D%22style%22%20crossorigin%20href%3D%22https%3A%2F%2Fcdn.jsdelivr.net%2Fgh%2Forioncactus%2Fpretendard%40v1.3.9%2Fdist%2Fweb%2Fvariable%2Fpretendardvariable.min.css%22%20%2F%3E;fontSize=8;" edge="1" parent="1" target="IzsNU7jMBQwgcsb1FpVf-78">
          <mxGeometry relative="1" as="geometry">
            <mxPoint x="570" y="860" as="sourcePoint" />
            <mxPoint x="310" y="800" as="targetPoint" />
            <Array as="points">
              <mxPoint x="570" y="790" />
            </Array>
          </mxGeometry>
        </mxCell>
        <mxCell id="IzsNU7jMBQwgcsb1FpVf-214" style="edgeStyle=orthogonalEdgeStyle;rounded=0;orthogonalLoop=1;jettySize=auto;html=1;exitX=1;exitY=0;exitDx=0;exitDy=0;entryX=0.5;entryY=0;entryDx=0;entryDy=0;fontFamily=pretendard;fontSource=%3Clink%20rel%3D%22stylesheet%22%20as%3D%22style%22%20crossorigin%20href%3D%22https%3A%2F%2Fcdn.jsdelivr.net%2Fgh%2Forioncactus%2Fpretendard%40v1.3.9%2Fdist%2Fweb%2Fvariable%2Fpretendardvariable.min.css%22%20%2F%3E;fontSize=8;" edge="1" parent="1" source="IzsNU7jMBQwgcsb1FpVf-27" target="IzsNU7jMBQwgcsb1FpVf-40">
          <mxGeometry relative="1" as="geometry">
            <mxPoint x="290" y="760" as="sourcePoint" />
            <mxPoint x="429" y="440" as="targetPoint" />
            <Array as="points">
              <mxPoint x="500" y="770" />
              <mxPoint x="500" y="120" />
              <mxPoint x="1010" y="120" />
            </Array>
          </mxGeometry>
        </mxCell>
        <mxCell id="IzsNU7jMBQwgcsb1FpVf-215" style="edgeStyle=orthogonalEdgeStyle;rounded=0;orthogonalLoop=1;jettySize=auto;html=1;fontFamily=pretendard;fontSource=%3Clink%20rel%3D%22stylesheet%22%20as%3D%22style%22%20crossorigin%20href%3D%22https%3A%2F%2Fcdn.jsdelivr.net%2Fgh%2Forioncactus%2Fpretendard%40v1.3.9%2Fdist%2Fweb%2Fvariable%2Fpretendardvariable.min.css%22%20%2F%3E;fontSize=8;" edge="1" parent="1" source="IzsNU7jMBQwgcsb1FpVf-78">
          <mxGeometry relative="1" as="geometry">
            <mxPoint x="790" y="780" as="sourcePoint" />
            <mxPoint x="1010" y="300" as="targetPoint" />
            <Array as="points">
              <mxPoint x="500" y="770" />
              <mxPoint x="500" y="120" />
              <mxPoint x="1010" y="120" />
              <mxPoint x="1010" y="300" />
            </Array>
          </mxGeometry>
        </mxCell>
        <mxCell id="IzsNU7jMBQwgcsb1FpVf-222" style="edgeStyle=orthogonalEdgeStyle;rounded=0;orthogonalLoop=1;jettySize=auto;html=1;entryX=0.5;entryY=1;entryDx=0;entryDy=0;entryPerimeter=0;fontFamily=pretendard;fontSource=%3Clink%20rel%3D%22stylesheet%22%20as%3D%22style%22%20crossorigin%20href%3D%22https%3A%2F%2Fcdn.jsdelivr.net%2Fgh%2Forioncactus%2Fpretendard%40v1.3.9%2Fdist%2Fweb%2Fvariable%2Fpretendardvariable.min.css%22%20%2F%3E;fontSize=8;" edge="1" parent="1" source="IzsNU7jMBQwgcsb1FpVf-31" target="IzsNU7jMBQwgcsb1FpVf-69">
          <mxGeometry relative="1" as="geometry">
            <Array as="points">
              <mxPoint x="380" y="1235" />
              <mxPoint x="540" y="1235" />
            </Array>
          </mxGeometry>
        </mxCell>
        <mxCell id="IzsNU7jMBQwgcsb1FpVf-279" value="해당 생존자 상태&lt;br style=&quot;font-size: 8px;&quot;&gt;= &#39;영구 탈락&#39;로 저장" style="edgeLabel;html=1;align=center;verticalAlign=middle;resizable=0;points=[];fontFamily=pretendard;fontSource=%3Clink%20rel%3D%22stylesheet%22%20as%3D%22style%22%20crossorigin%20href%3D%22https%3A%2F%2Fcdn.jsdelivr.net%2Fgh%2Forioncactus%2Fpretendard%40v1.3.9%2Fdist%2Fweb%2Fvariable%2Fpretendardvariable.min.css%22%20%2F%3E;fontSize=8;" connectable="0" vertex="1" parent="IzsNU7jMBQwgcsb1FpVf-222">
          <mxGeometry x="-0.0891" y="-2" relative="1" as="geometry">
            <mxPoint x="9" as="offset" />
          </mxGeometry>
        </mxCell>
        <mxCell id="IzsNU7jMBQwgcsb1FpVf-237" style="edgeStyle=orthogonalEdgeStyle;rounded=0;orthogonalLoop=1;jettySize=auto;html=1;entryX=0;entryY=1;entryDx=0;entryDy=0;fontFamily=pretendard;fontSource=%3Clink%20rel%3D%22stylesheet%22%20as%3D%22style%22%20crossorigin%20href%3D%22https%3A%2F%2Fcdn.jsdelivr.net%2Fgh%2Forioncactus%2Fpretendard%40v1.3.9%2Fdist%2Fweb%2Fvariable%2Fpretendardvariable.min.css%22%20%2F%3E;fontSize=8;" edge="1" parent="1" source="IzsNU7jMBQwgcsb1FpVf-236" target="IzsNU7jMBQwgcsb1FpVf-147">
          <mxGeometry relative="1" as="geometry">
            <Array as="points">
              <mxPoint x="1060" y="1005" />
            </Array>
          </mxGeometry>
        </mxCell>
        <mxCell id="IzsNU7jMBQwgcsb1FpVf-236" value="시간 증가" style="rounded=0;whiteSpace=wrap;html=1;fontFamily=pretendard;fontSource=%3Clink%20rel%3D%22stylesheet%22%20as%3D%22style%22%20crossorigin%20href%3D%22https%3A%2F%2Fcdn.jsdelivr.net%2Fgh%2Forioncactus%2Fpretendard%40v1.3.9%2Fdist%2Fweb%2Fvariable%2Fpretendardvariable.min.css%22%20%2F%3E;fontSize=8;" vertex="1" parent="1">
          <mxGeometry x="1030" y="1030" width="60" height="25" as="geometry" />
        </mxCell>
        <mxCell id="IzsNU7jMBQwgcsb1FpVf-276" value="&lt;font style=&quot;font-size: 8px;&quot;&gt;Yes&lt;/font&gt;" style="text;html=1;align=center;verticalAlign=middle;whiteSpace=wrap;rounded=0;fontFamily=pretendard;fontSource=%3Clink%20rel%3D%22stylesheet%22%20as%3D%22style%22%20crossorigin%20href%3D%22https%3A%2F%2Fcdn.jsdelivr.net%2Fgh%2Forioncactus%2Fpretendard%40v1.3.9%2Fdist%2Fweb%2Fvariable%2Fpretendardvariable.min.css%22%20%2F%3E;fontSize=8;" vertex="1" parent="1">
          <mxGeometry x="210" y="915" width="60" height="30" as="geometry" />
        </mxCell>
        <mxCell id="IzsNU7jMBQwgcsb1FpVf-289" value="&lt;font color=&quot;#ff6666&quot; data-font-src=&quot;&lt;link rel=&amp;quot;stylesheet&amp;quot; as=&amp;quot;style&amp;quot; crossorigin href=&amp;quot;https://cdn.jsdelivr.net/gh/orioncactus/pretendard@v1.3.9/dist/web/variable/pretendardvariable.min.css&amp;quot; /&gt;&quot; face=&quot;pretendard&quot; style=&quot;font-size: 10px;&quot;&gt;더 재밌는 걸로 바꾸고 싶음!&lt;/font&gt;" style="ellipse;shape=cloud;whiteSpace=wrap;html=1;" vertex="1" parent="1">
          <mxGeometry x="1150" y="1030" width="70" height="50" as="geometry" />
        </mxCell>
        <mxCell id="mSkNUsoHIlx_nRJ54L45-1" value="현재 상태 확인" style="rhombus;whiteSpace=wrap;html=1;fontFamily=pretendard;fontSource=%3Clink%20rel%3D%22stylesheet%22%20as%3D%22style%22%20crossorigin%20href%3D%22https%3A%2F%2Fcdn.jsdelivr.net%2Fgh%2Forioncactus%2Fpretendard%40v1.3.9%2Fdist%2Fweb%2Fvariable%2Fpretendardvariable.min.css%22%20%2F%3E;fontSize=8;" vertex="1" parent="1">
          <mxGeometry x="930" y="845" width="90" height="80" as="geometry" />
        </mxCell>
      </root>
    </mxGraphModel>
  </diagram>
</mxfile>
